<?xml version="1.0" standalone="no"?>
<!DOCTYPE svg PUBLIC "-//W3C//DTD SVG 20010904//EN"
 "http://www.w3.org/TR/2001/REC-SVG-20010904/DTD/svg10.dtd">
<svg version="1.0" xmlns="http://www.w3.org/2000/svg"
 width="500.000000pt" height="500.000000pt" viewBox="0 0 500.000000 500.000000"
 preserveAspectRatio="xMidYMid meet">

<g transform="translate(0.000000,500.000000) scale(0.100000,-0.100000)"
fill="#000000" stroke="none">
<path d="M2329 2827 l-137 -372 31 -3 c16 -2 33 2 37 9 4 6 48 121 96 255 49
134 91 244 94 244 3 0 46 -114 96 -253 l90 -252 88 -3 c69 -2 87 0 84 10 -3 7
-65 176 -139 376 l-133 362 -36 0 -35 0 -136 -373z"/>
<path d="M977 2826 c-60 -16 -113 -59 -152 -121 -36 -59 -46 -158 -22 -218
l16 -37 145 0 c81 0 146 2 146 4 0 2 -34 16 -75 31 -98 35 -135 75 -135 144 0
90 68 151 168 151 61 0 108 -17 140 -53 20 -21 38 -86 52 -184 0 -2 7 -3 15
-3 11 0 15 12 15 48 0 27 3 83 6 124 l7 75 -79 21 c-108 28 -189 34 -247 18z"/>
<path d="M3879 2831 c-88 -18 -169 -94 -199 -185 -13 -41 -9 -124 8 -168 l12
-28 145 0 c80 0 145 2 145 4 0 2 -28 14 -62 26 -114 41 -154 87 -145 165 5 51
30 87 78 114 74 42 210 16 243 -47 12 -24 36 -131 36 -164 0 -5 9 -8 19 -8 18
0 20 9 23 121 l3 121 -25 10 c-86 33 -220 51 -281 39z"/>
<path d="M1594 2345 c-3 -14 -11 -25 -18 -25 -7 0 -6 -4 3 -9 9 -6 12 -23 10
-55 -4 -43 -3 -46 20 -46 20 0 22 3 13 12 -19 19 -15 86 6 91 16 4 16 5 0 6
-10 0 -18 8 -18 16 0 7 8 19 18 24 15 9 15 10 -5 11 -16 0 -25 -8 -29 -25z"/>
<path d="M2230 2345 c0 -14 5 -25 10 -25 6 0 10 4 10 9 0 5 3 16 6 25 4 11 1
16 -10 16 -10 0 -16 -9 -16 -25z"/>
<path d="M2875 2290 c0 -78 1 -80 25 -80 19 0 21 3 12 12 -7 7 -12 40 -12 80
0 48 -4 68 -12 68 -9 0 -13 -23 -13 -80z"/>
<path d="M3160 2360 c0 -5 5 -10 10 -10 6 0 10 5 10 10 0 6 -4 10 -10 10 -5 0
-10 -4 -10 -10z"/>
<path d="M3477 2348 c-4 -12 -4 -24 -1 -27 6 -7 24 20 24 37 0 21 -17 13 -23
-10z"/>
<path d="M1340 2339 c-14 -25 0 -44 47 -64 36 -15 42 -29 17 -43 -22 -12 -54
-4 -54 14 0 8 -4 14 -10 14 -15 0 -12 -26 4 -39 20 -17 77 -10 90 12 15 23 -2
48 -40 60 -35 12 -46 27 -32 44 14 17 33 16 52 -2 18 -19 26 -19 26 -1 0 32
-84 37 -100 5z"/>
<path d="M2455 2350 c-3 -6 -5 -20 -4 -33 2 -12 -3 -32 -9 -44 -9 -17 -10 -28
-2 -43 9 -16 20 -20 58 -18 46 2 47 3 49 35 1 18 -3 33 -8 33 -5 0 -9 -8 -9
-17 0 -15 -3 -14 -22 5 -21 21 -21 22 -4 35 26 19 17 51 -16 55 -14 2 -29 -2
-33 -8z m37 -32 c-15 -15 -26 -4 -18 18 5 13 9 15 18 6 9 -9 9 -15 0 -24z m5
-90 c-12 -7 -47 8 -47 20 0 5 5 13 11 19 9 9 16 6 29 -10 13 -15 15 -24 7 -29z"/>
<path d="M2642 2351 c-26 -16 -9 -55 31 -74 39 -18 48 -41 21 -51 -18 -7 -50
8 -58 26 -3 7 -4 2 -3 -12 2 -20 8 -26 35 -28 70 -7 83 50 19 81 -26 12 -37
23 -35 35 5 24 39 28 55 6 15 -20 29 -13 20 11 -7 16 -62 21 -85 6z"/>
<path d="M1670 2335 c0 -8 -6 -15 -12 -15 -10 0 -10 -2 -1 -8 6 -4 13 -28 15
-52 3 -40 6 -45 28 -48 23 -2 24 -1 8 11 -21 17 -25 83 -5 90 10 4 10 6 0 6
-7 1 -13 8 -13 16 0 8 -4 15 -10 15 -5 0 -10 -7 -10 -15z"/>
<path d="M3080 2335 c0 -8 -6 -15 -12 -15 -10 0 -10 -2 -1 -8 6 -4 13 -28 15
-52 3 -40 6 -45 28 -48 23 -2 24 -1 8 11 -21 17 -25 83 -5 90 10 4 10 6 0 6
-7 1 -13 8 -13 16 0 8 -4 15 -10 15 -5 0 -10 -7 -10 -15z"/>
<path d="M1472 2308 c-16 -16 -15 -60 1 -82 9 -12 23 -17 42 -14 61 7 58 108
-3 108 -15 0 -33 -5 -40 -12z m56 -10 c30 -30 -1 -94 -33 -68 -25 20 -13 80
15 80 3 0 11 -5 18 -12z"/>
<path d="M1750 2268 c20 -63 35 -71 44 -23 4 19 11 35 16 35 5 0 12 -16 16
-35 9 -48 24 -40 45 23 17 51 17 52 -1 52 -12 0 -17 -5 -14 -13 2 -7 1 -24 -4
-37 -9 -24 -9 -23 -21 13 -16 47 -26 47 -42 0 -12 -36 -12 -37 -21 -13 -5 13
-6 30 -4 37 3 8 -2 13 -13 13 -17 0 -17 -2 -1 -52z"/>
<path d="M1915 2309 c-11 -17 3 -23 20 -9 17 14 49 6 43 -13 -3 -6 -18 -14
-34 -17 -23 -4 -29 -10 -29 -30 0 -23 4 -25 46 -27 l45 -2 -3 32 c-9 73 -11
77 -48 77 -18 0 -37 -5 -40 -11z m63 -61 c-5 -15 -48 -24 -48 -10 0 14 12 22
33 22 10 0 17 -5 15 -12z"/>
<path d="M2028 2313 c15 -6 16 -75 0 -91 -9 -9 -4 -12 22 -12 26 0 31 3 22 12
-17 17 -16 78 2 78 8 0 17 4 20 9 3 5 -13 9 -37 9 -23 0 -36 -2 -29 -5z"/>
<path d="M2123 2294 c-15 -24 -15 -29 -2 -53 10 -18 24 -27 47 -29 20 -2 32 1
32 8 0 7 -7 10 -15 6 -21 -8 -45 3 -45 20 0 9 12 14 35 14 27 0 35 4 35 18 0
46 -60 57 -87 16z m61 1 c4 -11 -1 -15 -19 -15 -24 0 -32 10 -18 23 11 12 31
8 37 -8z"/>
<path d="M2287 2313 c-17 -16 -5 -42 24 -52 17 -6 29 -16 27 -23 -7 -19 -24
-20 -42 -3 -15 15 -16 15 -16 -5 0 -18 5 -21 38 -18 30 2 38 7 40 26 3 18 -3
25 -27 33 -17 6 -31 17 -31 25 0 17 22 18 38 2 13 -13 27 -5 17 11 -7 12 -58
15 -68 4z"/>
<path d="M2759 2296 c-25 -53 24 -108 70 -79 20 12 27 69 10 89 -19 24 -68 18
-80 -10z m69 -19 c4 -33 -13 -58 -33 -50 -21 7 -28 39 -15 63 16 29 44 21 48
-13z"/>
<path d="M2938 2307 c6 -7 12 -30 14 -52 3 -40 3 -40 48 -42 l45 -2 -3 55 c-3
46 -7 54 -24 54 -17 0 -18 -3 -9 -14 20 -24 10 -70 -16 -74 -21 -3 -23 1 -23
42 0 40 -3 46 -21 46 -16 0 -19 -3 -11 -13z"/>
<path d="M3148 2313 c15 -6 16 -75 0 -91 -9 -9 -4 -12 22 -12 26 0 31 3 22 12
-7 7 -12 31 -12 55 0 38 -3 43 -22 42 -13 0 -17 -3 -10 -6z"/>
<path d="M3221 2294 c-16 -35 5 -78 40 -82 30 -4 52 18 52 53 0 56 -69 78 -92
29z m67 -23 c4 -35 -11 -53 -35 -44 -13 5 -18 64 -6 77 17 16 38 -1 41 -33z"/>
<path d="M3338 2313 c15 -6 16 -75 0 -91 -9 -9 -5 -12 21 -12 28 0 31 2 22 14
-7 8 -11 30 -9 48 2 25 8 33 23 33 15 0 21 -8 23 -33 2 -18 -2 -40 -9 -48 -9
-12 -6 -14 21 -14 25 0 30 3 22 13 -6 7 -12 30 -14 52 l-3 40 -55 2 c-30 0
-49 -1 -42 -4z"/>
<path d="M3524 2305 c-7 -18 12 -45 32 -45 18 0 28 -20 16 -32 -8 -8 -16 -7
-27 2 -17 14 -31 8 -20 -9 9 -16 61 -13 75 4 16 19 0 40 -35 49 -14 4 -25 11
-25 17 0 16 29 22 45 9 12 -10 15 -9 15 4 0 22 -68 23 -76 1z"/>
<path d="M788 2070 c-1 -22 -2 -50 -2 -62 -1 -17 10 -25 54 -41 78 -27 248
-35 322 -13 59 17 130 72 161 125 l18 31 -50 0 c-46 0 -51 -3 -71 -35 -12 -19
-42 -47 -68 -62 -95 -56 -250 -25 -293 58 -15 30 -25 39 -44 39 -22 0 -25 -5
-27 -40z"/>
<path d="M2045 2058 c-20 -53 -21 -53 -70 -58 -37 -4 -51 -10 -53 -22 -3 -17
9 -18 147 -18 144 0 151 1 151 20 0 18 -7 20 -60 20 -35 0 -60 4 -60 10 0 6 7
27 15 47 21 49 19 53 -18 53 -30 0 -34 -4 -52 -52z"/>
<path d="M2780 2058 c11 -29 20 -54 20 -55 0 -1 -28 -3 -62 -5 -50 -2 -63 -6
-66 -20 -3 -17 12 -18 202 -18 197 0 206 1 206 19 0 17 -8 20 -52 23 l-53 3
-19 53 -19 52 -88 0 -89 0 20 -52z"/>
<path d="M3668 2053 c-2 -32 -2 -61 2 -65 15 -19 168 -48 251 -48 122 0 182
23 248 96 28 31 51 60 51 65 0 5 -22 9 -50 9 -45 0 -51 -3 -65 -29 -57 -111
-260 -131 -345 -35 -16 19 -30 41 -30 49 0 10 -10 15 -29 15 -28 0 -29 -2 -33
-57z"/>
<path d="M1330 1475 c0 -8 5 -15 10 -15 6 0 10 -32 10 -75 0 -43 -4 -75 -10
-75 -5 0 -10 -7 -10 -15 0 -12 16 -15 80 -15 l80 0 0 30 c0 20 -5 30 -15 30
-8 0 -15 -7 -15 -15 0 -10 -11 -15 -35 -15 -32 0 -35 2 -35 30 0 28 3 30 35
30 24 0 35 5 35 15 0 10 -11 15 -35 15 -32 0 -35 2 -35 30 0 27 3 30 30 30 18
0 33 -6 36 -15 11 -27 34 -17 34 15 l0 30 -80 0 c-64 0 -80 -3 -80 -15z"/>
<path d="M2710 1476 c0 -8 7 -16 15 -20 11 -4 15 -22 15 -75 0 -52 -4 -70 -15
-75 -30 -11 -14 -26 30 -26 33 0 45 4 45 15 0 8 -4 15 -10 15 -6 0 -10 32 -10
75 0 43 4 75 10 75 6 0 10 7 10 15 0 11 -12 15 -45 15 -32 0 -45 -4 -45 -14z"/>
<path d="M3592 1442 c-8 -17 -9 -28 -2 -30 5 -2 10 -24 10 -48 0 -61 14 -84
50 -84 20 0 30 5 30 15 0 8 -7 15 -15 15 -11 0 -15 12 -15 50 0 28 5 50 10 50
6 0 10 7 10 15 0 8 -4 15 -10 15 -5 0 -10 7 -10 15 0 27 -44 17 -58 -13z"/>
<path d="M1510 1425 c0 -8 5 -15 10 -15 6 0 10 -22 10 -50 0 -27 -4 -50 -10
-50 -5 0 -10 -7 -10 -15 0 -11 11 -15 40 -15 29 0 40 4 40 15 0 8 -5 15 -11
15 -6 0 -9 17 -7 43 2 35 7 43 26 45 20 3 22 -1 22 -42 0 -25 -4 -48 -10 -51
-22 -13 -8 -25 30 -25 29 0 40 4 40 15 0 8 -5 15 -11 15 -6 0 -9 17 -7 43 2
35 7 43 26 45 20 3 22 -1 22 -42 0 -25 -4 -48 -10 -51 -22 -13 -8 -25 30 -25
29 0 40 4 40 15 0 8 -4 15 -10 15 -5 0 -10 22 -10 49 0 68 -26 94 -70 71 -13
-7 -27 -7 -43 1 -18 8 -30 8 -46 0 -14 -8 -21 -8 -21 -1 0 5 -13 10 -30 10
-20 0 -30 -5 -30 -15z"/>
<path d="M1784 1428 c-4 -6 1 -15 10 -20 13 -7 16 -25 16 -83 0 -43 -4 -75
-10 -75 -5 0 -10 -7 -10 -15 0 -11 11 -15 40 -15 38 0 52 12 30 25 -5 3 -10
14 -10 24 0 14 7 16 35 13 32 -4 36 -1 50 31 16 40 11 90 -12 108 -19 16 -130
22 -139 7z m111 -73 c0 -34 -3 -40 -22 -43 -21 -3 -23 1 -23 43 0 42 2 46 23
43 19 -3 22 -9 22 -43z"/>
<path d="M2004 1430 c-25 -10 -48 -68 -38 -96 13 -36 37 -54 71 -54 69 0 100
84 48 135 -25 26 -45 30 -81 15z m63 -58 c7 -31 -8 -57 -33 -57 -14 0 -20 8
-22 33 -6 60 41 80 55 24z"/>
<path d="M2135 1418 c3 -13 13 -49 22 -80 20 -73 44 -79 66 -15 10 27 17 37
21 27 3 -8 10 -28 16 -43 17 -47 42 -31 59 38 8 33 18 62 23 63 4 2 8 10 8 18
0 9 -11 14 -35 14 l-35 0 6 -47 c8 -56 -7 -50 -26 10 -15 49 -31 43 -51 -19
l-16 -49 -6 34 c-5 22 -3 37 4 42 19 12 0 29 -33 29 -27 0 -30 -3 -23 -22z"/>
<path d="M2397 1428 c-38 -29 -42 -102 -7 -133 24 -21 94 -17 98 6 2 13 -5 16
-34 15 -21 -1 -39 4 -41 12 -3 8 9 12 41 12 44 0 46 1 46 30 0 55 -61 89 -103
58z m63 -49 c0 -5 -11 -9 -25 -9 -27 0 -32 9 -13 28 12 12 38 -1 38 -19z"/>
<path d="M2520 1425 c0 -8 5 -15 10 -15 6 0 10 -22 10 -49 0 -28 -4 -53 -10
-56 -22 -13 -8 -25 30 -25 29 0 40 4 40 15 0 8 -4 15 -10 15 -11 0 -14 49 -4
74 3 9 15 16 25 16 12 0 19 7 19 20 0 22 -20 26 -38 8 -9 -9 -12 -9 -12 0 0 7
-13 12 -30 12 -20 0 -30 -5 -30 -15z"/>
<path d="M2814 1428 c-4 -6 -2 -14 4 -16 15 -5 16 -98 2 -107 -22 -13 -8 -25
29 -25 l39 0 -5 60 c-6 57 -5 60 17 60 22 0 23 -3 17 -60 l-5 -60 33 0 33 0
-5 60 c-6 57 -5 60 17 60 22 0 23 -3 17 -60 l-5 -60 39 0 c37 0 51 12 29 25
-5 3 -10 21 -10 40 0 71 -35 109 -79 85 -15 -8 -26 -7 -40 2 -15 9 -25 9 -45
0 -16 -7 -26 -8 -26 -2 0 14 -47 12 -56 -2z"/>
<path d="M3090 1425 c0 -8 5 -15 10 -15 6 0 10 -33 10 -80 0 -47 -4 -80 -10
-80 -5 0 -10 -7 -10 -15 0 -11 11 -15 40 -15 29 0 40 4 40 15 0 8 -4 15 -10
15 -5 0 -10 8 -10 18 0 15 6 18 30 14 38 -5 58 11 66 53 11 61 -36 122 -76 98
-12 -8 -21 -9 -25 -3 -10 16 -55 12 -55 -5z m114 -50 c8 -32 -10 -67 -32 -63
-12 2 -18 15 -20 46 -3 39 -1 42 21 42 18 0 27 -7 31 -25z"/>
<path d="M3298 1429 c-10 -5 -18 -17 -18 -24 0 -17 21 -20 36 -5 14 14 44 2
44 -16 0 -8 -10 -14 -26 -14 -38 0 -64 -18 -64 -44 0 -34 19 -45 82 -45 l56 0
-5 62 c-7 85 -49 119 -105 86z m57 -100 c0 -8 -10 -15 -22 -17 -25 -4 -33 22
-10 31 18 8 32 2 32 -14z"/>
<path d="M3455 1415 c-32 -31 -34 -86 -5 -115 22 -22 79 -27 98 -8 18 18 14
38 -8 38 -11 0 -20 -4 -20 -10 0 -5 -9 -10 -19 -10 -33 0 -43 57 -15 85 15 14
18 14 33 0 24 -21 41 -19 41 5 0 43 -68 53 -105 15z"/>
</g>
</svg>
