<svg width="167" height="220" viewBox="0 0 167 220" fill="none" xmlns="http://www.w3.org/2000/svg">
<path fill-rule="evenodd" clip-rule="evenodd" d="M29.9624 1.16132C20.4395 11.1488 10.6843 21.1363 1.16132 30.8915V218.795H153.296V1.16132H29.9624Z" fill="white"/>
<path d="M153.064 0H29.9625C29.7302 0 29.2657 0.232225 29.0334 0.464492C19.975 9.98744 10.6843 19.2781 1.85814 28.5688L0.232268 30.1947C8.82568e-07 30.427 0 30.6592 0 30.8915V218.796C0 219.492 0.464534 219.957 1.16134 219.957H153.296C153.993 219.957 154.458 219.492 154.458 218.796V1.16134C154.225 0.464534 153.761 0 153.064 0ZM151.903 217.634H2.09041V31.3561L3.48401 29.9624C12.3102 20.904 21.6008 11.3811 30.427 2.09039H151.903V217.634Z" fill="#1E3A2B"/>
<path fill-rule="evenodd" clip-rule="evenodd" d="M29.9624 1.16132C29.2656 2.78719 9.29066 21.1363 1.16132 30.8915C14.8651 31.1237 25.7816 32.0528 32.9819 32.2851C32.2851 22.2976 31.5883 10.6843 29.9624 1.16132Z" fill="white"/>
<path d="M33.911 30.8915C33.4465 21.1363 32.7497 10.2197 31.1238 0.929054C31.1238 0.46452 30.6593 0 30.1947 0C29.7302 0 29.2656 0.232239 29.0334 0.696773C28.5688 1.39357 24.6203 5.34213 20.6718 9.0584C14.1683 15.5619 5.10988 24.388 0.232268 30.1947C8.82567e-07 30.427 0 30.8915 0 31.3561C0.232267 31.8206 0.464538 32.0528 0.929072 32.0528C8.82615 32.2851 15.5619 32.5173 21.6008 32.9819C26.0139 33.2141 29.7302 33.4464 32.7497 33.4464C32.9819 33.4464 33.4465 33.2141 33.6787 32.9819C33.911 32.7496 33.911 32.5174 33.911 32.0528V30.8915ZM21.8331 30.6592C16.491 30.4269 10.452 29.9624 3.48401 29.9624C8.59388 24.388 16.2587 16.7232 22.2976 10.9165C25.7816 7.4325 28.1043 5.3421 29.2657 3.9485C30.6593 12.5424 31.1238 22.5299 31.8206 31.1238C28.8011 30.8915 25.5494 30.6592 21.8331 30.6592Z" fill="#1E3A2B"/>
<path d="M126.353 61.783H101.733V164.213H126.353V61.783Z" fill="#1E3A2B"/>
<path d="M126.353 60.6216H101.733C101.036 60.6216 100.572 61.0862 100.572 61.783V164.213C100.572 164.91 101.036 165.374 101.733 165.374H126.353C127.05 165.374 127.515 164.91 127.515 164.213V61.783C127.515 61.0862 127.05 60.6216 126.353 60.6216ZM125.192 163.051H102.894V62.7121H125.192V163.051Z" fill="#1E3A2B"/>
<path d="M165.839 38.7885H141.218V165.606H165.839V38.7885Z" fill="white"/>
<path d="M165.839 37.6271H141.218C140.522 37.6271 140.057 38.0917 140.057 38.7885V165.606C140.057 166.303 140.522 166.768 141.218 166.768H165.839C166.535 166.768 167 166.303 167 165.606V38.7885C167 38.3239 166.303 37.6271 165.839 37.6271ZM164.677 164.445H142.38V39.9498H164.677V164.445Z" fill="#1E3A2B"/>
<path d="M47.6147 112.882H22.9944V165.606H47.6147V112.882Z" fill="white"/>
<path d="M47.6147 111.72H22.9944C22.2976 111.72 21.8331 112.185 21.8331 112.882V165.606C21.8331 166.303 22.2976 166.768 22.9944 166.768H47.6147C48.3115 166.768 48.776 166.303 48.776 165.606V112.882C48.776 112.417 48.3115 111.72 47.6147 111.72ZM46.4534 164.445H24.1557V114.043H46.4534V164.445Z" fill="#1E3A2B"/>
<path d="M87.1001 84.0806H62.4798V164.213H87.1001V84.0806Z" fill="white"/>
<path d="M87.1001 82.9193H62.4798C61.783 82.9193 61.3185 83.3838 61.3185 84.0806V164.213C61.3185 164.91 61.783 165.374 62.4798 165.374H87.1001C87.7969 165.374 88.2615 164.91 88.2615 164.213V84.0806C88.0292 83.6161 87.5647 82.9193 87.1001 82.9193ZM85.9388 163.051H63.6412V85.2419H85.9388V163.051Z" fill="#1E3A2B"/>
<path fill-rule="evenodd" clip-rule="evenodd" d="M70.3769 160.032C68.7511 158.871 67.3575 157.709 65.9639 156.316C65.7316 156.083 65.4993 156.083 65.4993 156.316C65.2671 156.548 65.2671 156.78 65.4993 156.78C66.8929 158.174 68.5188 159.335 69.9124 160.496H70.1447C70.3769 160.496 70.3769 160.497 70.3769 160.264C70.6092 160.264 70.6092 160.032 70.3769 160.032Z" fill="#1E3A2B"/>
<path fill-rule="evenodd" clip-rule="evenodd" d="M78.5062 159.8L66.196 149.115C65.9638 148.883 65.7315 148.883 65.7315 149.115C65.4992 149.348 65.4992 149.58 65.7315 149.58L78.0417 160.264H78.2739C78.2739 160.264 78.5062 160.264 78.5062 160.032C78.7385 160.264 78.7385 159.8 78.5062 159.8Z" fill="#1E3A2B"/>
<path fill-rule="evenodd" clip-rule="evenodd" d="M83.6162 155.154L66.1961 141.451C65.9639 141.218 65.7316 141.451 65.7316 141.451C65.4993 141.683 65.7316 141.915 65.7316 141.915L83.1516 155.619H83.3839C83.3839 155.619 83.6162 155.619 83.6162 155.387C83.8484 155.387 83.8484 155.154 83.6162 155.154Z" fill="#1E3A2B"/>
<path fill-rule="evenodd" clip-rule="evenodd" d="M83.8484 147.025C77.8095 142.844 71.7705 138.663 66.1961 134.018C65.9639 133.786 65.7316 134.018 65.7316 134.018C65.4993 134.25 65.7316 134.483 65.7316 134.483C71.5383 139.128 77.3449 143.541 83.6162 147.49H83.8484C84.0807 147.49 84.0807 147.49 84.0807 147.257C84.0807 147.257 84.0807 147.025 83.8484 147.025Z" fill="#1E3A2B"/>
<path fill-rule="evenodd" clip-rule="evenodd" d="M83.6162 138.431C77.8095 134.25 71.7705 129.837 66.1961 125.424C65.9639 125.192 65.7316 125.424 65.7316 125.424C65.4993 125.656 65.7316 125.889 65.7316 125.889C71.5383 130.302 77.3449 134.715 83.1516 138.896H83.3839C83.6162 138.896 83.6162 138.896 83.6162 138.663C83.8484 138.896 83.8484 138.663 83.6162 138.431Z" fill="#1E3A2B"/>
<path fill-rule="evenodd" clip-rule="evenodd" d="M83.3838 130.07L65.7315 117.527C65.4992 117.295 65.267 117.527 65.267 117.527C65.0347 117.759 65.267 117.992 65.267 117.992L82.9193 130.534H83.1515C83.3838 130.534 83.3838 130.534 83.3838 130.302C83.6161 130.302 83.6161 130.07 83.3838 130.07Z" fill="#1E3A2B"/>
<path fill-rule="evenodd" clip-rule="evenodd" d="M83.6161 122.172C77.5772 118.224 71.7705 113.811 65.9638 109.398C65.7316 109.165 65.4993 109.398 65.4993 109.398C65.267 109.63 65.4993 109.862 65.4993 109.862C71.306 114.275 77.1126 118.456 83.1516 122.637H83.3839C83.6161 122.637 83.6161 122.637 83.6161 122.405C83.8484 122.405 83.6161 122.172 83.6161 122.172Z" fill="#1E3A2B"/>
<path fill-rule="evenodd" clip-rule="evenodd" d="M82.9194 112.882L66.1961 100.571C65.9639 100.339 65.7316 100.571 65.7316 100.571C65.4993 100.804 65.7316 101.036 65.7316 101.036L82.4548 113.346H82.6871C82.9194 113.346 82.9194 113.346 82.9194 113.114C83.1516 113.346 83.1516 113.114 82.9194 112.882Z" fill="#1E3A2B"/>
<path fill-rule="evenodd" clip-rule="evenodd" d="M82.9194 104.752C77.3449 100.804 71.7705 96.623 66.1961 92.4422C65.9639 92.2099 65.7316 92.4422 65.7316 92.4422C65.4993 92.6744 65.7316 92.9067 65.7316 92.9067C71.0737 97.0875 76.8804 101.268 82.4548 105.217H82.6871C82.9194 105.217 82.9194 105.217 82.9194 104.985C83.1516 104.985 83.1516 104.752 82.9194 104.752Z" fill="#1E3A2B"/>
<path fill-rule="evenodd" clip-rule="evenodd" d="M83.6161 97.0876L72.2351 88.2615C72.0028 88.0292 71.7705 88.2615 71.7705 88.2615C71.5383 88.4938 71.7705 88.726 71.7705 88.726L83.1516 97.5522H83.3839C83.3839 97.5522 83.6161 97.5522 83.6161 97.3199C83.8484 97.3199 83.6161 97.0876 83.6161 97.0876Z" fill="#1E3A2B"/>
<path fill-rule="evenodd" clip-rule="evenodd" d="M83.6161 89.655L80.8289 87.3324C80.5967 87.1001 80.3644 87.3324 80.3644 87.3324C80.1321 87.5646 80.3644 87.7969 80.3644 87.7969L83.1516 90.1196H83.3839C83.3839 90.1196 83.6161 90.1196 83.6161 89.8873C83.8484 90.1196 83.6161 89.8873 83.6161 89.655Z" fill="#1E3A2B"/>
<path fill-rule="evenodd" clip-rule="evenodd" d="M140.754 177.452C102.43 176.755 63.6412 177.684 25.3171 180.007C25.0849 180.007 24.8526 180.239 24.8526 180.471C24.8526 180.704 25.0849 180.936 25.3171 180.936C63.6412 178.613 102.43 177.684 140.754 178.381C140.986 178.381 141.218 178.149 141.218 177.917C141.218 177.684 140.986 177.452 140.754 177.452Z" fill="#1E3A2B"/>
<path fill-rule="evenodd" clip-rule="evenodd" d="M42.2726 189.994L25.7816 190.923C25.5493 190.923 25.3171 191.156 25.3171 191.388C25.3171 191.62 25.5493 191.853 25.7816 191.853L42.2726 190.923C42.5048 190.923 42.7371 190.691 42.7371 190.459C42.7371 190.227 42.5048 189.994 42.2726 189.994Z" fill="#1E3A2B"/>
<g opacity="0.1294">
<path fill-rule="evenodd" clip-rule="evenodd" d="M33.2142 33.2143C32.5174 32.5175 31.5883 32.5174 30.6593 32.7497C26.4785 32.5174 22.2976 31.8206 18.1168 31.5884C14.4006 31.5884 10.452 31.5884 6.73576 31.5884C5.57443 31.5884 4.64535 31.3562 3.48402 31.3562C3.01949 31.1239 2.55495 31.3561 2.09042 31.5884C0.696818 32.5174 0.929083 34.8401 2.55495 35.3047C8.12936 35.7692 13.4715 35.537 19.0459 36.0015C23.6913 36.466 28.5689 36.466 31.8206 36.9306C33.4465 36.6983 34.3755 34.3756 33.2142 33.2143Z" fill="black"/>
</g>
</svg>
