<svg xmlns="http://www.w3.org/2000/svg" viewBox="0 0 256 256" xml:space="preserve"><path fill="#CECECE" d="M32.035 210.046c-7.535 0-13.665-6.13-13.665-13.665V72.605c0-7.535 6.13-13.665 13.665-13.665h191.931c7.535 0 13.665 6.13 13.665 13.665v123.776c0 7.535-6.13 13.665-13.665 13.665H32.035z"/><path fill="#E2E2E2" d="M223.965 58.94h-14.667c7.534 0 13.665 6.13 13.665 13.665v123.776c0 7.534-6.13 13.665-13.665 13.665h14.667c7.535 0 13.665-6.13 13.665-13.665V72.605c0-7.534-6.13-13.665-13.665-13.665z"/><path fill="#AFAFAF" d="M32.035 58.94h14.667c-7.534 0-13.665 6.13-13.665 13.665v123.776c0 7.534 6.13 13.665 13.665 13.665H32.035c-7.535 0-13.665-6.13-13.665-13.665V72.605c0-7.534 6.13-13.665 13.665-13.665z"/><path fill="#63BCE7" d="M229.221 72.629v123.728a5.28 5.28 0 0 1-5.28 5.28H32.059a5.28 5.28 0 0 1-5.28-5.28V72.629a5.28 5.28 0 0 1 5.28-5.28h191.882a5.28 5.28 0 0 1 5.28 5.28z"/><path fill="#63E2E7" d="M223.941 67.349h-14.667a5.28 5.28 0 0 1 5.28 5.28v123.728a5.28 5.28 0 0 1-5.28 5.28h14.667a5.28 5.28 0 0 0 5.28-5.28V72.629a5.28 5.28 0 0 0-5.28-5.28z"/><path fill="#6377E7" d="M32.059 67.349h14.667a5.28 5.28 0 0 0-5.28 5.28v123.728a5.28 5.28 0 0 0 5.28 5.28H32.059a5.28 5.28 0 0 1-5.28-5.28V72.629a5.28 5.28 0 0 1 5.28-5.28z"/><path fill="#CECECE" d="M128 210.046H8.667l3.053 7.024a17.333 17.333 0 0 0 15.896 10.423h200.769a17.333 17.333 0 0 0 15.896-10.423l3.053-7.024H128z"/><path fill="#E2E2E2" d="m232.667 210.046-3.053 7.024a17.333 17.333 0 0 1-15.896 10.423h14.667a17.333 17.333 0 0 0 15.896-10.423l3.053-7.024h-14.667z"/><path fill="#AFAFAF" d="m23.333 210.046 3.053 7.024a17.333 17.333 0 0 0 15.896 10.423H27.615a17.333 17.333 0 0 1-15.896-10.423l-3.053-7.024h14.667z"/><path fill="#707070" d="m82.442 210.046 4.22 5.388a8.7 8.7 0 0 0 6.85 3.336h68.975a8.7 8.7 0 0 0 6.85-3.336l4.221-5.388H82.442z"/><circle fill="#CECECE" cx="168.886" cy="151.198" r="34.507"/><circle fill="#F8AF23" cx="87.114" cy="151.198" r="34.507"/><path fill="#CECECE" d="M101.923 171.006H72.305a5 5 0 0 1-5-5v-29.618a5 5 0 0 1 5-5h29.618a5 5 0 0 1 5 5v29.618a5 5 0 0 1-5 5z"/><path fill="#F46275" d="M183.695 171.058h-29.618a5 5 0 0 1-5-5V136.44a5 5 0 0 1 5-5h29.618a5 5 0 0 1 5 5v29.618a5 5 0 0 1-5 5z"/><circle fill="#CECECE" cx="128" cy="67.57" r="50.037"/><g><path fill="#AFAFAF" d="M92.63 67.57c0-25.143 18.546-45.948 42.703-49.497a50.37 50.37 0 0 0-7.333-.54c-27.635 0-50.037 22.402-50.037 50.037 0 27.634 22.402 50.037 50.037 50.037a50.37 50.37 0 0 0 7.333-.54C111.176 113.518 92.63 92.713 92.63 67.57z"/></g><g><circle fill="#F8AF23" cx="152.697" cy="66.343" r="10.006"/><path fill="#F8AF23" d="M143.34 89.861 119.937 77.58V55.096l23.403-12.282z"/><path fill="#F46275" d="M143.34 42.814h9.357v47.047h-9.357z"/><path fill="#CECECE" d="M100.254 55.096h19.683V77.59h-19.683z"/><path fill="#F46275" d="M88.482 60.712h11.772v11.252H88.482z"/><path fill="#CECECE" d="M105.754 77.589h8.682v17.596h-8.682z"/><g fill="#3F3679"><path d="m245.656 217.668 3.053-7.023a1.5 1.5 0 0 0-1.375-2.098h-14.352c3.722-2.766 6.149-7.182 6.149-12.165V72.605c0-8.362-6.803-15.165-15.165-15.165h-45.434c-4.72-23.583-25.581-41.407-50.531-41.407S82.189 33.858 77.469 57.44H32.035c-8.362 0-15.165 6.803-15.165 15.165v123.776c0 4.983 2.427 9.399 6.149 12.165H8.667a1.5 1.5 0 0 0-1.375 2.098l3.053 7.023a18.805 18.805 0 0 0 7.08 8.325H9.32a1.5 1.5 0 1 0 0 3h237.36a1.5 1.5 0 1 0 0-3h-8.104a18.79 18.79 0 0 0 7.08-8.324zM223.941 68.849a3.785 3.785 0 0 1 3.78 3.78v123.728a3.785 3.785 0 0 1-3.78 3.78H32.059a3.785 3.785 0 0 1-3.78-3.78V72.629a3.785 3.785 0 0 1 3.78-3.78h44.437c.683 27.827 23.516 50.258 51.504 50.258s50.821-22.431 51.504-50.258h44.437zM128 19.034c26.763 0 48.537 21.773 48.537 48.537S154.763 116.107 128 116.107 79.463 94.333 79.463 67.57 101.237 19.034 128 19.034zM19.87 196.381V72.605c0-6.708 5.457-12.165 12.165-12.165h44.933a51.512 51.512 0 0 0-.461 5.409H32.059a6.788 6.788 0 0 0-6.78 6.78v123.728a6.788 6.788 0 0 0 6.78 6.78h191.882a6.788 6.788 0 0 0 6.78-6.78V72.629a6.788 6.788 0 0 0-6.78-6.78h-44.448a51.535 51.535 0 0 0-.461-5.409h44.933c6.708 0 12.165 5.457 12.165 12.165v123.776c0 6.708-5.457 12.165-12.165 12.165H32.035c-6.708 0-12.165-5.457-12.165-12.165zm150.608 15.165-2.321 2.963a7.161 7.161 0 0 1-5.669 2.761H93.513a7.155 7.155 0 0 1-5.669-2.761l-2.321-2.963h84.955zm57.907 14.447H27.615c-4.787 0-9.22-2.156-12.179-5.723h29.14a1.5 1.5 0 1 0 0-3H13.478c-.132-.263-.264-.526-.383-.798l-2.141-4.925h70.758l3.77 4.813a10.138 10.138 0 0 0 8.031 3.911h68.975c3.157 0 6.084-1.425 8.031-3.911l3.77-4.813h70.758l-2.141 4.925c-.118.272-.25.535-.383.798h-31.098a1.5 1.5 0 1 0 0 3h29.14a15.824 15.824 0 0 1-12.18 5.723z"/><path d="M65.22 217.27H54.845a1.5 1.5 0 1 0 0 3H65.22a1.5 1.5 0 1 0 0-3zM201.155 217.27H190.78a1.5 1.5 0 1 0 0 3h10.375a1.5 1.5 0 1 0 0-3zM27.323 236.966H9.32a1.5 1.5 0 1 0 0 3h18.003a1.5 1.5 0 1 0 0-3zM246.68 236.966h-18.003a1.5 1.5 0 1 0 0 3h18.003a1.5 1.5 0 1 0 0-3zM218.479 236.966H37.521a1.5 1.5 0 1 0 0 3H218.48a1.5 1.5 0 1 0-.001-3zM132.879 151.198c0 19.854 16.153 36.007 36.007 36.007s36.007-16.153 36.007-36.007-16.153-36.007-36.007-36.007-36.007 16.153-36.007 36.007zm36.007-33.007c18.2 0 33.007 14.807 33.007 33.007s-14.807 33.007-33.007 33.007-33.007-14.807-33.007-33.007 14.807-33.007 33.007-33.007zM87.114 115.191c-19.854 0-36.007 16.153-36.007 36.007s16.153 36.007 36.007 36.007 36.007-16.153 36.007-36.007-16.153-36.007-36.007-36.007zm0 69.014c-18.2 0-33.007-14.807-33.007-33.007s14.807-33.007 33.007-33.007 33.007 14.807 33.007 33.007-14.807 33.007-33.007 33.007z"/><path d="M101.923 129.889H72.305a6.508 6.508 0 0 0-6.5 6.5v29.618c0 3.584 2.916 6.5 6.5 6.5h29.618c3.584 0 6.5-2.916 6.5-6.5v-29.618c0-3.584-2.916-6.5-6.5-6.5zm3.5 36.117c0 1.93-1.57 3.5-3.5 3.5H72.305c-1.93 0-3.5-1.57-3.5-3.5v-29.618c0-1.93 1.57-3.5 3.5-3.5h29.618c1.93 0 3.5 1.57 3.5 3.5v29.618z"/><path d="M93.597 136.721c-5.013 0-9.091 4.078-9.091 9.091v1.911h-3.68a1.5 1.5 0 1 0 0 3h3.68v13.452a1.5 1.5 0 1 0 3 0v-13.452h3.681a1.5 1.5 0 1 0 0-3h-3.681v-1.911a6.097 6.097 0 0 1 6.091-6.091 1.5 1.5 0 1 0 0-3zM154.077 172.558h29.618c3.584 0 6.5-2.916 6.5-6.5V136.44c0-3.584-2.916-6.5-6.5-6.5h-29.618a6.508 6.508 0 0 0-6.5 6.5v29.618c0 3.584 2.916 6.5 6.5 6.5zm-3.5-36.118c0-1.93 1.57-3.5 3.5-3.5h29.618c1.93 0 3.5 1.57 3.5 3.5v29.618c0 1.93-1.57 3.5-3.5 3.5h-29.618c-1.93 0-3.5-1.57-3.5-3.5V136.44z"/><path d="M168.886 163.271c6.628 0 12.021-5.393 12.021-12.021s-5.393-12.021-12.021-12.021-12.021 5.393-12.021 12.021 5.393 12.021 12.021 12.021zm0-21.042c4.974 0 9.021 4.047 9.021 9.021s-4.047 9.021-9.021 9.021-9.021-4.047-9.021-9.021 4.047-9.021 9.021-9.021zM182.097 141.644a2.081 2.081 0 1 0 0-4.163 2.081 2.081 0 0 0 0 4.163zM88.482 73.463h10.272v4.126a1.5 1.5 0 0 0 1.5 1.5h4v16.096a1.5 1.5 0 0 0 1.5 1.5h8.682a1.5 1.5 0 0 0 1.5-1.5V79.089h3.649l23.058 12.1v-.007c.209.111.444.179.697.179h9.357a1.5 1.5 0 0 0 1.5-1.5V77.739c5.636-.739 10.006-5.562 10.006-11.397s-4.369-10.658-10.006-11.397V42.814a1.5 1.5 0 0 0-1.5-1.5h-9.357a1.49 1.49 0 0 0-.697.179v-.007l-23.076 12.109h-19.314a1.5 1.5 0 0 0-1.5 1.5v4.116H88.482a1.5 1.5 0 0 0-1.5 1.5v11.251a1.5 1.5 0 0 0 1.5 1.501zm72.721-7.121c0 4.177-3.03 7.654-7.006 8.365v-16.73c3.976.712 7.006 4.188 7.006 8.365zM144.84 44.314h6.357v44.047h-6.357V44.314zm-31.903 49.372h-5.682V79.089h5.682v14.597zm28.903-6.306-20.403-10.707V56.002l20.403-10.707V87.38zm-40.086-30.784h16.683V76.09H101.755V56.596zm-11.772 5.616h8.772v8.251h-8.772v-8.251z"/></g></g></svg>