<svg width="167" height="115" viewBox="0 0 167 115" fill="none" xmlns="http://www.w3.org/2000/svg">
<path fill-rule="evenodd" clip-rule="evenodd" d="M166.324 1.35102C107.55 1.35102 51.4782 0.945679 0.540466 0.945679C0.945806 38.1018 1.48626 75.5282 1.48626 114.441C50.127 114.441 109.307 112.414 164.838 114.441C163.892 77.8251 164.433 37.6965 166.324 1.35102Z" fill="white"/>
<path d="M167 1.35113C167 1.21602 167 0.945791 166.865 0.810678C166.73 0.675564 166.595 0.540453 166.324 0.540453C135.924 0.540453 106.199 0.405341 77.555 0.270228C50.5324 0.135114 25.1311 0 0.54045 0C0.405337 0 0.135111 0.135114 0.135111 0.135114C0.135111 0.135114 0 0.40534 0 0.675566V1.62136C0.40534 37.9668 0.810678 75.5283 0.810678 114.036C0.810678 114.441 1.0809 114.711 1.48624 114.711C17.1594 114.711 33.6432 114.441 51.2079 114.306C88.4992 113.765 127.142 113.36 164.838 114.711C164.973 114.711 165.244 114.711 165.379 114.576C165.514 114.441 165.514 114.306 165.514 114.036C164.568 77.4199 165.108 37.2913 167 1.35113ZM164.028 113.63C126.601 112.279 88.229 112.82 51.0728 113.225C33.7783 113.495 17.5647 113.63 2.0267 113.63C2.0267 75.3932 1.62136 37.9668 1.21602 1.89159V1.62136C25.6715 1.62136 50.8026 1.75647 77.555 1.89159C106.064 2.0267 135.384 2.16181 165.649 2.16181C163.892 37.5615 163.217 77.1497 164.028 113.63Z" fill="#1E3A2B"/>
<path fill-rule="evenodd" clip-rule="evenodd" d="M101.605 70.7993C90.9312 67.4215 80.2572 63.9085 69.7184 60.1253C75.9336 51.0728 82.419 41.8851 88.7694 32.8325C89.0396 32.5622 88.9045 32.1569 88.6342 31.8867C88.364 31.6164 87.9587 31.7516 87.6885 32.0218C81.203 41.2095 74.4474 50.8025 68.097 59.9902C67.9619 60.1254 67.9619 60.3956 67.9619 60.5307C67.9619 60.6658 68.2321 60.936 68.3673 60.936C79.1763 64.7192 90.1205 68.3673 101.065 71.8802H101.2C101.47 71.8802 101.74 71.7451 101.875 71.4749C102.146 71.3398 101.875 70.9344 101.605 70.7993Z" fill="#1E3A2B"/>
<path fill-rule="evenodd" clip-rule="evenodd" d="M67.2864 60.3956C58.3689 53.7751 49.1812 47.4248 39.7233 41.6149C39.5882 41.4798 39.3179 41.4798 39.1828 41.6149C39.0477 41.75 38.7775 41.8851 38.7775 42.0202L28.644 72.6909C28.5089 73.0963 28.7791 73.3665 29.0493 73.5016C29.1844 73.5016 29.1844 73.5016 29.3195 73.5016C29.5898 73.5016 29.86 73.3665 29.9951 73.0963L39.8584 43.2362C48.911 49.0461 57.9635 55.1262 66.6108 61.6116C66.881 61.8819 67.2864 61.7468 67.5566 61.4765C67.5566 60.9361 67.5566 60.5307 67.2864 60.3956Z" fill="#1E3A2B"/>
<path d="M67.8269 70.5291C73.2742 70.5291 77.6902 66.1132 77.6902 60.6659C77.6902 55.2186 73.2742 50.8026 67.8269 50.8026C62.3796 50.8026 57.9636 55.2186 57.9636 60.6659C57.9636 66.1132 62.3796 70.5291 67.8269 70.5291Z" fill="white"/>
<path d="M67.8269 50.127C62.017 50.127 57.288 54.8559 57.288 60.6658C57.288 66.4757 62.017 71.2046 67.8269 71.2046C73.6367 71.2046 78.3657 66.4757 78.3657 60.6658C78.3657 54.8559 73.6367 50.127 67.8269 50.127ZM67.8269 69.7184C62.8277 69.7184 58.6392 65.665 58.6392 60.5307C58.6392 55.5315 62.6925 51.343 67.8269 51.343C72.9612 51.343 77.0146 55.3964 77.0146 60.5307C77.0146 65.665 72.826 69.7184 67.8269 69.7184Z" fill="#1E3A2B"/>
<path d="M39.453 48.2354C43.2587 48.2354 46.3438 45.1503 46.3438 41.3446C46.3438 37.539 43.2587 34.4539 39.453 34.4539C35.6474 34.4539 32.5623 37.539 32.5623 41.3446C32.5623 45.1503 35.6474 48.2354 39.453 48.2354Z" fill="#1E3A2B"/>
<path d="M39.4531 33.6432C35.2645 33.6432 31.8867 37.021 31.8867 41.2095C31.8867 45.398 35.2645 48.7759 39.4531 48.7759C43.6416 48.7759 47.0194 45.398 47.0194 41.2095C47.1545 37.1561 43.6416 33.6432 39.4531 33.6432ZM39.4531 47.5598C35.9401 47.5598 33.2379 44.7225 33.2379 41.3446C33.2379 37.8317 36.0752 35.1294 39.4531 35.1294C42.966 35.1294 45.6683 37.9668 45.6683 41.3446C45.8034 44.7225 42.966 47.5598 39.4531 47.5598Z" fill="#1E3A2B"/>
<path d="M88.0938 37.2912C91.3025 37.2912 93.9037 34.6901 93.9037 31.4814C93.9037 28.2727 91.3025 25.6715 88.0938 25.6715C84.8851 25.6715 82.2839 28.2727 82.2839 31.4814C82.2839 34.6901 84.8851 37.2912 88.0938 37.2912Z" fill="white"/>
<path d="M88.0938 24.996C84.5809 24.996 81.6084 27.8333 81.6084 31.4814C81.6084 34.9944 84.4458 37.9668 88.0938 37.9668C91.6068 37.9668 94.5793 35.1295 94.5793 31.4814C94.5793 27.9685 91.7419 24.996 88.0938 24.996ZM88.0938 36.6157C85.2565 36.6157 82.9595 34.3188 82.9595 31.4814C82.9595 28.644 85.2565 26.3471 88.0938 26.3471C90.9312 26.3471 93.2281 28.644 93.2281 31.4814C93.2281 34.3188 90.9312 36.6157 88.0938 36.6157Z" fill="#1E3A2B"/>
<path d="M102.01 76.2038C104.548 76.2038 106.604 74.1471 106.604 71.61C106.604 69.0729 104.548 67.0161 102.01 67.0161C99.4734 67.0161 97.4166 69.0729 97.4166 71.61C97.4166 74.1471 99.4734 76.2038 102.01 76.2038Z" fill="#1E3A2B"/>
<path d="M102.011 66.3406C99.1731 66.3406 96.7411 68.6375 96.7411 71.61C96.7411 74.4474 99.038 76.8794 102.011 76.8794C104.848 76.8794 107.28 74.5825 107.28 71.61C107.145 68.6375 104.848 66.3406 102.011 66.3406ZM102.011 75.3932C99.8487 75.3932 98.0922 73.6367 98.0922 71.4749C98.0922 69.3131 99.8487 67.5566 102.011 67.5566C104.172 67.5566 105.929 69.3131 105.929 71.4749C105.794 73.6367 104.037 75.3932 102.011 75.3932Z" fill="#1E3A2B"/>
<path d="M29.0493 78.6359C32.258 78.6359 34.8592 76.0347 34.8592 72.826C34.8592 69.6173 32.258 67.0161 29.0493 67.0161C25.8406 67.0161 23.2394 69.6173 23.2394 72.826C23.2394 76.0347 25.8406 78.6359 29.0493 78.6359Z" fill="white"/>
<path d="M29.0493 66.3406C25.5364 66.3406 22.5639 69.178 22.5639 72.826C22.5639 76.339 25.4013 79.3114 29.0493 79.3114C32.5623 79.3114 35.5348 76.4741 35.5348 72.826C35.5348 69.178 32.5623 66.3406 29.0493 66.3406ZM29.0493 77.8252C26.212 77.8252 23.915 75.5283 23.915 72.6909C23.915 69.8535 26.212 67.5566 29.0493 67.5566C31.8867 67.5566 34.1836 69.8535 34.1836 72.6909C34.1836 75.5283 31.8867 77.8252 29.0493 77.8252Z" fill="#1E3A2B"/>
<path fill-rule="evenodd" clip-rule="evenodd" d="M66.746 52.559C66.6109 52.4239 66.4757 52.4239 66.4757 52.559C64.1788 54.8559 62.017 57.2879 59.8552 59.5849C59.7201 59.72 59.7201 59.8551 59.8552 59.8551H59.9903C59.9903 59.8551 60.1254 59.8551 60.1254 59.72C62.2872 57.2879 64.449 54.991 66.746 52.6941C66.8811 52.6941 66.8811 52.559 66.746 52.559Z" fill="black"/>
<path fill-rule="evenodd" clip-rule="evenodd" d="M70.394 52.9644C70.2589 52.8293 70.1238 52.8293 70.1238 52.9644L60.1254 63.233C59.9903 63.3681 59.9903 63.5032 60.1254 63.5032H60.2605C60.2605 63.5032 60.3956 63.5032 60.3956 63.3681L70.394 53.0995C70.5291 53.2346 70.5291 53.0995 70.394 52.9644Z" fill="black"/>
<path fill-rule="evenodd" clip-rule="evenodd" d="M73.2314 54.856C73.0963 54.7209 72.9612 54.7209 72.9612 54.856L62.1521 66.2055C62.017 66.3406 62.017 66.4757 62.1521 66.4757H62.2872C62.2872 66.4757 62.4223 66.4757 62.4223 66.3406L73.2314 54.9911C73.3665 55.1262 73.3665 54.9911 73.2314 54.856Z" fill="black"/>
<path fill-rule="evenodd" clip-rule="evenodd" d="M74.7176 58.0987C74.5825 57.9636 74.4474 58.0987 74.4474 58.0987C71.61 61.3415 68.7726 64.7193 65.8001 67.8269C65.665 67.962 65.665 68.0971 65.8001 68.0971H65.9352C65.9352 68.0971 66.0704 68.0971 66.0704 67.962C69.0429 64.8544 71.8802 61.4766 74.7176 58.2339C74.8527 58.369 74.8527 58.2339 74.7176 58.0987Z" fill="black"/>
<path fill-rule="evenodd" clip-rule="evenodd" d="M75.123 62.5574C74.9878 62.4223 74.8527 62.4223 74.8527 62.5574C73.3665 64.3139 71.8802 65.9352 70.394 67.5566C70.2589 67.6917 70.2589 67.8268 70.394 67.8268H70.5291C70.5291 67.8268 70.6642 67.8268 70.6642 67.6917C72.1505 66.0703 73.6367 64.3139 75.123 62.5574C75.123 62.6925 75.123 62.8276 75.123 62.5574Z" fill="black"/>
<path fill-rule="evenodd" clip-rule="evenodd" d="M140.248 26.4822C129.844 26.6174 119.305 26.4822 108.901 26.0769C108.766 26.0769 108.631 26.212 108.631 26.3471C108.631 26.4822 108.766 26.6174 108.901 26.6174C117.278 26.8876 125.79 27.1578 134.303 27.1578C136.329 27.1578 138.356 27.1578 140.248 27.1578C140.383 27.1578 140.518 27.0227 140.518 26.8876C140.518 26.6174 140.383 26.4822 140.248 26.4822Z" fill="#1E3A2B"/>
<path fill-rule="evenodd" clip-rule="evenodd" d="M122.413 35.2645L108.901 35.5348C108.766 35.5348 108.631 35.6699 108.631 35.805C108.631 35.9401 108.766 36.0752 108.901 36.0752L122.413 35.805C122.548 35.805 122.683 35.6699 122.683 35.5348C122.548 35.2645 122.548 35.2645 122.413 35.2645Z" fill="#1E3A2B"/>
<path fill-rule="evenodd" clip-rule="evenodd" d="M139.707 35.3996C136.194 35.1294 132.681 35.1294 129.168 35.1294C129.033 35.1294 128.898 35.2645 128.898 35.3996C128.898 35.5347 129.033 35.6698 129.168 35.6698C132.681 35.5347 136.194 35.6698 139.707 35.9401C139.842 35.9401 139.977 35.805 139.977 35.6698C139.842 35.5347 139.842 35.3996 139.707 35.3996Z" fill="#1E3A2B"/>
<path fill-rule="evenodd" clip-rule="evenodd" d="M139.707 44.5873C134.708 44.7224 129.574 44.5873 124.574 44.4522C119.575 44.3171 114.441 44.182 109.442 44.3171C109.307 44.3171 109.172 44.4522 109.172 44.5873C109.172 44.7224 109.307 44.8575 109.442 44.8575C114.441 44.7224 119.575 44.8575 124.574 44.9926C128.222 45.1278 132.006 45.1278 135.789 45.1278C137.14 45.1278 138.491 45.1278 139.842 45.1278C139.977 45.1278 140.112 44.9926 140.112 44.8575C139.842 44.7224 139.842 44.7224 139.707 44.5873Z" fill="#1E3A2B"/>
<path fill-rule="evenodd" clip-rule="evenodd" d="M153.315 99.8587L138.127 84.5626C138.011 84.4458 137.895 84.4458 137.664 84.4458C137.548 84.4458 137.316 84.5626 137.2 84.6793L123.288 101.026L116.679 93.2031C116.563 93.0864 116.448 92.9696 116.216 92.9696C116.1 92.9696 115.868 93.0864 115.752 93.2031L109.028 102.428C108.796 102.661 108.912 103.011 109.144 103.245C109.26 103.362 109.376 103.362 109.491 103.362C109.723 103.362 109.839 103.245 109.955 103.128L116.216 94.4876L122.824 102.311C122.94 102.428 123.056 102.544 123.288 102.544C123.404 102.544 123.635 102.428 123.751 102.311L137.664 85.9637L152.503 100.793C152.735 101.026 153.083 101.026 153.315 100.793C153.547 100.443 153.547 100.092 153.315 99.8587Z" fill="#1E3A2B"/>
</svg>
