<svg width="198" height="152" viewBox="0 0 198 152" fill="none" xmlns="http://www.w3.org/2000/svg">
<path d="M196.435 151.167C196.435 114.833 196.588 72.0878 196.588 33.4643C133.386 33.4643 73.237 33.0063 18.4313 33.0063C18.8893 71.6298 19.3472 110.559 19.3472 150.861C71.863 150.861 141.019 151.167 196.435 151.167Z" fill="white"/>
<path d="M196.435 151.93C168.345 151.93 136.286 151.777 105.449 151.777C74.4583 151.625 45.2999 151.625 19.5 151.625C19.042 151.625 18.7366 151.319 18.7366 150.861C18.7366 110.864 18.2786 71.9351 17.8206 34.0748V33.0062C17.8206 32.8535 17.8207 32.5482 17.9733 32.5482C18.126 32.3956 18.2786 32.3956 18.4313 32.3956C44.8419 32.3956 72.1684 32.5482 101.174 32.5482C132.012 32.7009 163.918 32.8535 196.588 32.8535C197.046 32.8535 197.351 33.1589 197.351 33.6168C197.351 53.3103 197.351 74.0723 197.199 94.3764C197.199 114.528 197.046 133.458 197.046 151.319C197.199 151.472 196.893 151.93 196.435 151.93ZM20.2633 150.098C45.9105 150.098 74.7636 150.251 105.449 150.251C136.134 150.403 167.735 150.403 195.825 150.403C195.825 132.847 195.825 114.07 195.977 94.2237C195.977 74.225 196.13 53.7683 196.13 34.2275C163.613 34.2275 132.012 34.0749 101.48 33.9222C72.7791 33.7695 45.7578 33.7695 19.5 33.7695V34.0748C19.8053 71.6297 20.2633 110.406 20.2633 150.098Z" fill="#1E3A2B"/>
<path d="M164.834 24.1518C139.034 23.9991 113.387 23.8465 87.5872 23.5411C65.7565 23.3885 40.5673 23.8465 18.7366 23.5411C18.4313 29.953 18.4313 35.1435 18.7366 39.2654C74.7636 39.2654 140.714 38.3494 197.046 39.2654C197.351 35.1435 197.199 29.3423 197.199 24.3045C187.734 24.3045 174.299 24.1518 164.834 24.1518Z" fill="#1E3A2B"/>
<path d="M18.7366 40.0287C18.2786 40.0287 17.9733 39.7234 17.9733 39.2654C17.6679 35.2962 17.6679 30.2583 17.9733 23.3885C17.9733 22.9305 18.2786 22.6252 18.7366 22.6252C30.3389 22.7779 43.0098 22.7779 55.2228 22.6252C66.0618 22.6252 77.3588 22.4726 87.5872 22.6252C111.402 22.9305 138.424 23.0832 164.834 23.2359C168.651 23.2359 173.231 23.2359 177.811 23.3885C184.528 23.3885 191.55 23.5412 197.199 23.5412C197.657 23.5412 197.962 23.8465 197.962 24.3045C197.962 25.8311 197.962 27.3578 197.962 28.8844C197.962 32.5483 198.115 36.3648 197.809 39.2654C197.809 39.7234 197.504 40.0287 197.046 40.0287C159.033 39.4181 116.898 39.5707 76.1375 39.876C56.1388 39.876 37.056 40.0287 18.7366 40.0287ZM19.4999 24.3045C19.1946 30.2583 19.1946 34.8382 19.4999 38.5021C37.6667 38.5021 56.2915 38.3494 76.2902 38.3494C116.746 38.1968 158.728 37.8914 196.435 38.5021C196.588 35.7542 196.588 32.2429 196.588 28.8844C196.588 27.5104 196.588 26.2891 196.588 25.0678C191.092 25.0678 184.375 25.0678 177.963 24.9152C173.383 24.9152 168.803 24.9152 164.987 24.7625C138.576 24.6098 111.555 24.4572 87.7399 24.1518C77.5115 23.9992 66.3671 24.1518 55.5281 24.1518C43.3151 24.3045 30.7969 24.4572 19.4999 24.3045Z" fill="#1E3A2B"/>
<path d="M181.932 29.8004C181.169 29.6477 180.559 30.1057 180.101 30.5637C179.795 31.0217 179.795 31.6323 179.948 32.0903C180.101 32.5483 180.711 33.0063 181.322 33.0063C182.238 33.0063 183.001 32.243 183.001 31.4797C183.306 30.7164 182.543 29.8004 181.932 29.8004Z" fill="white"/>
<path d="M166.514 29.8004C165.75 29.6477 165.14 30.1057 164.682 30.5637C164.376 31.0217 164.376 31.6323 164.529 32.0903C164.834 32.5483 165.292 33.0063 165.903 33.0063C166.819 33.0063 167.582 32.243 167.582 31.4797C167.735 30.7164 167.124 29.8004 166.514 29.8004Z" fill="white"/>
<path d="M150.179 29.8004C149.415 29.6477 148.805 30.1057 148.347 30.5637C148.041 31.0217 148.042 31.6323 148.194 32.0903C148.499 32.5483 148.958 33.0063 149.568 33.0063C150.484 33.0063 151.247 32.243 151.247 31.4797C151.4 30.7164 150.637 29.8004 150.179 29.8004Z" fill="white"/>
<path d="M91.4036 94.0711C91.251 94.0711 90.9457 93.9184 90.793 93.7658C90.4877 93.4605 90.6403 93.0025 90.9457 92.6972L119.799 69.0345C120.104 68.8819 120.409 68.8819 120.562 68.8819L142.698 80.1789L167.735 54.9896C168.04 54.6843 168.498 54.6843 168.803 54.9896C169.109 55.2949 169.109 55.7529 168.803 56.0583L143.309 81.7055C143.156 82.0108 142.698 82.0108 142.393 81.8582L120.104 70.5612L91.709 93.9185C91.709 93.9185 91.5563 94.0711 91.4036 94.0711Z" fill="#1E3A2B"/>
<path d="M103.617 101.552H91.4036V128.573H103.617V101.552Z" fill="white"/>
<path d="M103.616 129.336H91.4035C90.9455 129.336 90.6402 129.031 90.6402 128.573V101.552C90.6402 101.094 90.9455 100.788 91.4035 100.788H103.616C104.074 100.788 104.38 101.094 104.38 101.552V128.573C104.38 129.031 104.074 129.336 103.616 129.336ZM92.0142 127.809H102.853V102.315H92.0142V127.809Z" fill="#1E3A2B"/>
<path d="M126.211 85.98H113.998V128.42H126.211V85.98Z" fill="white"/>
<path d="M126.21 129.183H113.998C113.54 129.183 113.234 128.878 113.234 128.42V85.98C113.234 85.522 113.54 85.2167 113.998 85.2167H126.21C126.668 85.2167 126.974 85.522 126.974 85.98V128.42C126.974 128.725 126.668 129.183 126.21 129.183ZM114.761 127.657H125.6V86.7433H114.761V127.657Z" fill="#1E3A2B"/>
<path d="M148.805 93.3078H136.592V128.573H148.805V93.3078Z" fill="#1E3A2B"/>
<path d="M148.957 129.336H136.744C136.286 129.336 135.981 129.031 135.981 128.573V93.3077C135.981 92.8498 136.286 92.5444 136.744 92.5444H148.957C149.415 92.5444 149.72 92.8498 149.72 93.3077V128.573C149.72 129.031 149.415 129.336 148.957 129.336ZM137.355 127.809H148.194V94.0711H137.355V127.809Z" fill="#1E3A2B"/>
<path d="M171.551 74.3776H159.338V128.573H171.551V74.3776Z" fill="white"/>
<path d="M171.551 129.336H159.338C158.88 129.336 158.575 129.031 158.575 128.573V74.3776C158.575 73.9196 158.88 73.6143 159.338 73.6143H171.551C172.009 73.6143 172.314 73.9196 172.314 74.3776V128.573C172.314 129.031 172.009 129.336 171.551 129.336ZM160.102 127.809H170.941V75.1409H160.102V127.809Z" fill="#1E3A2B"/>
<path d="M123.615 113.001H116.746C116.593 113.001 116.44 112.849 116.44 112.696C116.44 112.543 116.593 112.391 116.746 112.391H123.615C123.768 112.391 123.921 112.543 123.921 112.696C123.921 112.849 123.768 113.001 123.615 113.001Z" fill="#1E3A2B"/>
<path d="M123.615 116.818H116.746C116.593 116.818 116.44 116.665 116.44 116.512C116.44 116.36 116.593 116.207 116.746 116.207H123.615C123.768 116.207 123.921 116.36 123.921 116.512C123.921 116.665 123.768 116.818 123.615 116.818Z" fill="#1E3A2B"/>
<path d="M123.615 120.634H116.746C116.593 120.634 116.44 120.482 116.44 120.329C116.44 120.176 116.593 120.024 116.746 120.024H123.615C123.768 120.024 123.921 120.176 123.921 120.329C123.921 120.482 123.768 120.634 123.615 120.634Z" fill="#1E3A2B"/>
<path d="M123.615 124.298H116.746C116.593 124.298 116.44 124.146 116.44 123.993C116.44 123.84 116.593 123.688 116.746 123.688H123.615C123.768 123.688 123.921 123.84 123.921 123.993C123.921 124.298 123.768 124.298 123.615 124.298Z" fill="#1E3A2B"/>
<path d="M123.615 98.0403H116.746C116.593 98.0403 116.44 97.8876 116.44 97.735C116.44 97.5823 116.593 97.4297 116.746 97.4297H123.615C123.768 97.4297 123.921 97.5823 123.921 97.735C123.921 97.8876 123.768 98.0403 123.615 98.0403Z" fill="#1E3A2B"/>
<path d="M123.615 101.704H116.746C116.593 101.704 116.44 101.551 116.44 101.399C116.44 101.246 116.593 101.093 116.746 101.093H123.615C123.768 101.093 123.921 101.246 123.921 101.399C123.921 101.704 123.768 101.704 123.615 101.704Z" fill="#1E3A2B"/>
<path d="M123.615 105.521H116.746C116.593 105.521 116.44 105.368 116.44 105.215C116.44 105.063 116.593 104.91 116.746 104.91H123.615C123.768 104.91 123.921 105.063 123.921 105.215C123.921 105.368 123.768 105.521 123.615 105.521Z" fill="black"/>
<path d="M123.615 109.337H116.746C116.593 109.337 116.44 109.185 116.44 109.032C116.44 108.879 116.593 108.727 116.746 108.727H123.615C123.768 108.727 123.921 108.879 123.921 109.032C123.921 109.185 123.768 109.337 123.615 109.337Z" fill="black"/>
<path d="M123.615 90.4072H116.746C116.593 90.4072 116.44 90.2545 116.44 90.1019C116.44 89.9492 116.593 89.7966 116.746 89.7966H123.615C123.768 89.7966 123.921 89.9492 123.921 90.1019C123.921 90.2545 123.768 90.4072 123.615 90.4072Z" fill="#1E3A2B"/>
<path d="M123.615 94.2237H116.746C116.593 94.2237 116.44 94.0711 116.44 93.9184C116.44 93.7657 116.593 93.6131 116.746 93.6131H123.615C123.768 93.6131 123.921 93.7657 123.921 93.9184C123.921 94.0711 123.768 94.2237 123.615 94.2237Z" fill="black"/>
<path d="M78.2746 125.672L37.3612 125.367C37.2085 125.367 37.0558 125.214 37.0558 125.062C37.0558 124.909 37.2085 124.756 37.3612 124.756L78.2746 125.062C78.4273 125.062 78.58 125.214 78.58 125.367C78.58 125.52 78.4273 125.672 78.2746 125.672Z" fill="#1E3A2B"/>
<path d="M74.3053 117.428L41.483 117.123C41.3303 117.123 41.1777 116.97 41.1777 116.818C41.1777 116.665 41.3303 116.512 41.483 116.512L74.3053 116.818C74.458 116.818 74.6107 116.97 74.6107 117.123C74.6107 117.428 74.458 117.428 74.3053 117.428Z" fill="#1E3A2B"/>
<path d="M21.5919 1.56165C12.8901 1.71431 4.4937 8.43145 2.20377 17.2859C-0.0861633 26.1403 3.73037 36.5213 11.0582 41.4065C18.5386 46.2917 28.9196 45.3757 35.4841 39.1165C42.0486 33.0101 44.1859 22.171 40.3693 13.7746C36.7054 5.53086 27.6984 1.56165 21.5919 1.56165Z" fill="white"/>
<path d="M21.7446 45.3756C17.928 45.3756 13.9588 44.307 10.7529 42.1697C3.11976 37.1319 -0.849453 26.4455 1.59314 17.2858C4.03574 8.12608 12.5848 1.10363 21.7446 0.950963C28.4617 0.798301 37.4687 5.37816 41.2853 13.7746C45.1019 22.3237 42.9646 33.6206 36.2475 40.0325C32.1256 43.391 26.9351 45.3756 21.7446 45.3756ZM21.7446 2.32491C13.3481 2.47758 5.25703 8.88939 3.11976 17.5911C0.829831 26.1402 4.49378 36.2159 11.6689 40.9484C18.844 45.681 28.9197 44.765 35.1788 38.8112C41.438 32.8574 43.5753 22.3237 39.9114 14.2326C36.5528 6.4468 28.1564 2.32491 21.8973 2.32491C21.7446 2.32491 21.7446 2.32491 21.7446 2.32491Z" fill="#1E3A2B"/>
<path d="M21.4392 34.0787C20.0653 34.0787 18.844 33.926 17.7754 33.468C15.9434 32.7047 14.7221 31.1781 14.4168 29.6515C14.4168 29.1935 14.7222 28.8882 15.0275 28.8882C15.4855 28.8882 15.7908 29.1935 15.7908 29.4988C15.9435 30.5674 16.8594 31.4834 18.2334 32.0941C19.4547 32.7047 21.1339 32.8574 22.8132 32.552C24.9505 32.2467 26.6298 31.1781 27.2405 29.9568C27.8511 28.8882 27.5457 27.3615 26.3244 26.1402C25.4085 25.0716 23.7292 24.1556 21.5919 23.545C21.2866 23.3923 20.8286 23.3923 20.5233 23.2396C18.844 22.7817 17.0121 22.171 15.7908 20.9497C14.8748 20.0337 14.4168 18.6598 14.7222 17.2858C15.0275 15.7592 16.2487 14.2326 17.928 13.6219C20.8286 12.4007 24.7979 13.4693 26.4772 15.9119C26.7825 16.2172 26.6298 16.6752 26.3244 16.9805C26.0191 17.2858 25.5611 17.1332 25.2558 16.8278C23.8818 14.9959 20.6759 14.2326 18.386 15.1486C17.1647 15.6066 16.4014 16.6752 16.0961 17.7438C15.9434 18.6598 16.0961 19.4231 16.7067 20.0338C17.6227 20.9497 19.302 21.4077 20.8286 21.8657C21.134 22.0184 21.592 22.0184 21.8973 22.171C24.3399 22.9343 26.0192 23.8503 27.2405 25.2243C28.7671 26.9035 29.225 29.0408 28.309 30.7201C27.3931 32.3994 25.4085 33.6207 22.8132 34.0787C22.6606 33.926 22.0499 34.0787 21.4392 34.0787Z" fill="#1E3A2B"/>
<path d="M21.1339 14.5379C20.6759 14.5379 20.3706 14.2326 20.3706 13.7746L20.2179 9.50007C20.2179 9.04208 20.5232 8.73676 20.9812 8.73676C21.4392 8.73676 21.7445 9.04208 21.7445 9.50007L21.8972 13.7746C21.8972 14.0799 21.4392 14.3853 21.1339 14.5379Z" fill="#1E3A2B"/>
<path d="M22.3552 38.5059C21.8973 38.5059 21.5919 38.2006 21.5919 37.7426L21.4392 33.4681C21.4392 33.0101 21.7445 32.7048 22.2025 32.7048C22.6605 32.7048 22.9658 33.0101 22.9658 33.4681L23.1185 37.7426C23.1185 38.2006 22.6606 38.5059 22.3552 38.5059Z" fill="#1E3A2B"/>
</svg>
