<svg width="167" height="138" viewBox="0 0 167 138" fill="none" xmlns="http://www.w3.org/2000/svg">
<path fill-rule="evenodd" clip-rule="evenodd" d="M166.279 8.42487C107.754 8.42487 51.9668 7.84827 1.08124 7.84827C1.51369 50.0848 1.94611 92.7537 1.94611 137.008C50.3811 137.008 109.339 134.702 164.549 137.008C163.829 95.4926 164.405 49.9406 166.279 8.42487Z" fill="white"/>
<path d="M167 8.56908C167 8.42493 167 8.13662 166.856 7.99247C166.712 7.84832 166.568 7.70417 166.279 7.70417C136.007 7.70417 106.456 7.56002 77.9141 7.41587C51.1019 7.27171 25.7311 7.12756 1.22532 7.12756C1.08117 7.12756 0.792886 7.27171 0.792886 7.27171C0.648734 7.41587 0.648682 7.56002 0.648682 7.84832V9.00154C1.08114 50.3731 1.51365 93.1862 1.51365 137.008C1.51365 137.441 1.80195 137.729 2.23441 137.729C17.8028 137.729 34.2361 137.441 51.6785 137.297C88.8697 136.72 127.358 136.144 164.838 137.729C164.982 137.729 165.27 137.729 165.414 137.585C165.559 137.441 165.703 137.297 165.558 137.008C164.549 95.0602 165.126 49.3641 167 8.56908ZM163.829 136.288C126.493 134.702 88.293 135.279 51.3902 135.855C34.2361 136.143 17.9469 136.288 2.66684 136.288C2.66684 92.7538 2.23442 50.229 1.80197 9.00154V8.56908C26.0195 8.56908 51.246 8.71323 77.7699 8.85738C106.168 9.00154 135.431 9.14569 165.414 9.14569C163.685 49.6524 163.108 94.7719 163.829 136.288Z" fill="#1E3A2B"/>
<path fill-rule="evenodd" clip-rule="evenodd" d="M166.135 1.64977C157.342 1.64977 145.089 1.50561 136.296 1.50561C112.511 1.36146 88.5813 1.21731 64.7963 0.929008C44.615 0.784856 21.2625 1.21731 1.08122 0.929008C0.792914 6.83923 0.792914 11.5962 1.08122 15.4883C52.9759 15.4883 113.952 14.6234 166.135 15.4883C166.423 11.5962 166.135 6.26263 166.135 1.64977Z" fill="white"/>
<path d="M166.856 5.83014C166.856 4.38862 166.856 2.94711 166.856 1.64974C166.856 1.21728 166.568 0.928979 166.135 0.928979C160.946 0.928979 154.459 0.928979 148.26 0.784827C143.936 0.784827 139.755 0.784829 136.151 0.640677C111.646 0.496525 86.7074 0.352371 64.6521 0.0640675C55.1381 -0.0800844 44.7592 0.0640675 34.8127 0.0640675C23.4247 0.0640675 11.7484 0.208219 0.936987 0.0640675C0.504531 0.0640675 0.216228 0.352371 0.216228 0.784827C-0.0720759 6.98336 -0.0720759 11.7404 0.216228 15.3442C0.216228 15.7766 0.504531 16.0649 0.936987 16.0649C17.9469 16.0649 35.5335 15.9208 54.1291 15.9208C91.8969 15.7766 130.818 15.4883 165.991 16.0649C166.423 16.0649 166.712 15.7766 166.712 15.3442C167 12.7494 167 9.28979 166.856 5.83014ZM165.414 14.7676C130.385 14.191 91.7527 14.4793 54.2732 14.6234C35.9659 14.7676 18.5236 14.7676 1.80195 14.7676C1.6578 11.3079 1.6578 7.12751 1.80195 1.64974C12.325 1.79389 23.8572 1.79389 34.9569 1.64974C45.0475 1.64974 55.4264 1.50559 64.7962 1.64974C86.8515 1.79389 111.79 2.08219 136.296 2.22635C139.899 2.22635 144.08 2.22635 148.26 2.3705C154.17 2.3705 160.369 2.51465 165.414 2.51465C165.414 3.66787 165.414 4.82108 165.414 6.11845C165.558 9.00148 165.558 12.1728 165.414 14.7676Z" fill="#1E3A2B"/>
<path fill-rule="evenodd" clip-rule="evenodd" d="M63.0665 58.3013C61.1926 50.6612 55.1382 44.1744 45.7683 41.7238C38.1283 39.7057 29.4791 42.7329 24.2897 48.7873C19.1002 54.8416 17.2262 63.3466 18.8119 71.1308C20.6859 79.9241 29.0467 86.6992 35.6777 87.5641C46.3449 88.8615 54.994 83.8162 57.7329 80.5007C62.6341 74.3022 64.9405 65.9413 63.0665 58.3013Z" fill="white"/>
<path d="M63.7873 58.1572C61.7692 49.9405 55.1382 43.4537 45.9124 41.0031C38.1282 38.985 29.3349 41.868 23.713 48.2107C18.5236 54.121 16.5055 62.9142 18.0911 71.1309C19.9651 80.2124 28.6142 87.2759 35.5335 88.1408C36.6867 88.2849 37.84 88.2849 38.9932 88.2849C47.9306 88.2849 55.4265 84.1045 58.1654 80.7891C63.499 74.4464 65.6613 65.7973 63.7873 58.1572ZM57.1563 79.9241C54.8498 82.663 46.6332 88.1408 35.8218 86.6993C29.4791 85.9785 21.4066 79.3475 19.6768 70.8426C18.0911 63.0584 20.1093 54.8417 24.8663 49.0756C28.9026 44.3186 34.9569 41.7239 40.723 41.7239C42.3087 41.7239 43.8943 41.868 45.48 42.3005C54.1291 44.6069 60.4718 50.6613 62.3458 58.4455C64.2198 65.6531 62.2016 73.8698 57.1563 79.9241Z" fill="#1E3A2B"/>
<path fill-rule="evenodd" clip-rule="evenodd" d="M42.0203 51.0939C40.0022 51.0939 37.8399 51.9588 36.5426 53.4003C35.2452 54.8418 34.8127 56.8599 35.2452 58.7339C35.5335 59.743 36.1102 60.752 37.1192 61.4728C38.9932 62.9143 41.732 63.2026 43.8943 62.0494C46.0566 61.0404 47.354 58.7339 47.2098 56.5716C47.0657 54.1211 45.1917 51.238 42.0203 51.0939Z" fill="white"/>
<path d="M42.0204 50.373C39.7139 50.373 37.4075 51.238 36.1102 52.8236C34.6687 54.4093 34.092 56.7157 34.6687 58.7339C34.957 59.8871 35.6777 61.0403 36.6867 61.761C37.8399 62.7701 39.4256 63.2026 41.0113 63.2026C42.1645 63.2026 43.1736 62.9143 44.1826 62.4818C46.4891 61.3286 48.0748 58.878 47.9306 56.2833C47.7865 53.6885 45.48 50.5172 42.0204 50.373ZM43.6061 61.3286C41.7321 62.3377 39.1374 62.0494 37.5517 60.752C36.8309 60.1754 36.2543 59.3105 35.966 58.3014C35.5335 56.7157 35.966 54.9859 37.1193 53.6885C38.2725 52.3912 40.0022 51.6704 41.732 51.6704H41.8762C44.7593 51.8146 46.345 54.5535 46.4891 56.4274C46.6333 58.5897 45.4801 60.4637 43.6061 61.3286Z" fill="#1E3A2B"/>
<path fill-rule="evenodd" clip-rule="evenodd" d="M47.0656 65.9415C45.6241 64.5 43.4618 63.3468 41.2996 63.2026C40.0022 63.2026 38.7048 63.3468 37.6958 64.0675C33.9478 66.6623 32.0738 71.2751 31.2089 74.5906C32.5063 75.4555 34.6686 77.6178 40.8671 77.6178C48.7955 77.6178 50.6695 75.0231 50.8136 74.7348C50.237 71.7076 49.0838 67.8155 47.0656 65.9415Z" fill="#1E3A2B"/>
<path d="M47.6423 65.365C45.7683 63.491 43.606 62.4819 41.4438 62.4819C39.7139 62.4819 38.4165 62.7702 37.4074 63.491C33.3712 66.2299 31.4973 70.9869 30.6324 74.4465C30.4882 74.7348 30.6323 75.0232 30.9206 75.1673C31.0648 75.3115 31.209 75.3114 31.3531 75.4556C32.7946 76.4647 35.2452 78.1945 40.8671 78.1945C44.3268 78.1945 49.0838 77.6179 51.2461 75.1673C51.3902 75.0232 51.5344 74.7348 51.5344 74.4465C50.9578 71.5635 49.6604 67.5272 47.6423 65.365ZM40.8671 76.8971C35.6777 76.8971 33.5154 75.3115 32.218 74.3024C32.218 74.3024 32.218 74.3024 32.0739 74.3024C32.9388 71.1311 34.6686 66.9506 38.1282 64.6442C38.849 64.2118 39.858 63.9235 41.2996 63.9235C43.7501 63.9235 45.6242 65.5091 46.4891 66.374C47.9306 67.8156 49.0838 70.5544 49.9487 74.5907C48.5071 76.1764 45.1917 76.8971 40.8671 76.8971Z" fill="#1E3A2B"/>
<g opacity="0.1294">
<path fill-rule="evenodd" clip-rule="evenodd" d="M45.9124 58.7339C44.3267 61.0403 40.7229 60.8962 39.858 60.752C38.5606 60.4637 38.4165 60.3196 37.6957 59.8871C36.6867 59.3105 36.5425 59.1664 35.5335 58.3014C35.2452 58.0131 35.101 57.7248 34.6686 57.5807C34.8127 58.0131 35.101 58.4456 35.2451 58.8781C35.3893 59.3105 35.6776 59.743 35.8218 60.1754C36.1101 60.6079 36.3984 61.0403 36.8309 61.3286C37.1192 61.6169 37.5516 61.9052 37.9841 62.1935C38.1282 62.1935 38.2724 62.0494 38.2724 62.0494H38.4165C38.5606 62.0494 38.5607 62.0494 38.7048 62.0494C38.849 62.0494 38.849 62.1935 38.9931 62.1935C39.1373 62.3377 39.1373 62.3377 39.1373 62.4818C39.1373 62.626 39.1373 62.7702 38.9931 62.7702C38.849 62.9143 38.849 62.9143 38.7048 62.9143C38.5607 62.9143 38.4165 62.9143 38.2724 63.0585C38.2724 63.2026 38.1282 63.2026 37.9841 63.3468C37.9841 63.9234 38.4165 64.5 38.9931 64.5C40.0022 64.5 41.0113 64.5 41.8762 64.5C42.3086 64.5 42.7411 64.5 43.0294 64.2117C43.4618 63.9234 43.3176 63.3468 43.1735 62.9143C43.0293 62.9143 43.0294 62.9143 42.8853 62.9143C42.1645 63.0585 41.8762 62.0494 42.5969 61.9052C43.3177 61.7611 43.8943 61.4728 44.4709 61.1845C44.9033 60.8962 45.3358 60.4637 45.7683 60.0313C46.2007 59.4547 46.489 59.0222 46.7773 58.4456C46.7773 58.4456 46.3449 58.4456 45.9124 58.7339Z" fill="black"/>
</g>
<g opacity="0.1294">
<path fill-rule="evenodd" clip-rule="evenodd" d="M60.9042 75.1673C59.751 76.753 56.1472 79.7802 55.4264 80.2126C52.1109 82.6632 51.5343 82.8074 48.2188 83.9606C44.1826 85.2579 41.4437 85.9787 37.4074 85.5462C36.6867 85.5462 33.6595 84.9696 33.2271 84.6813C32.7946 84.5372 31.3531 83.9606 30.0557 83.2398C28.7583 82.519 27.461 81.6541 26.3078 80.7892C25.587 80.2126 25.0104 79.636 24.2896 79.0594C23.2806 78.1945 22.4156 77.3296 21.5507 76.3205C20.9741 75.5998 20.2534 74.4465 19.6767 74.0141C19.9651 73.1492 19.5326 71.996 18.2352 71.8518C18.6677 73.2933 19.2443 74.879 19.9651 76.1764C20.1092 76.4647 20.2534 76.753 20.3975 77.0413C20.83 77.6179 21.1182 78.1945 21.5507 78.7711C22.7039 80.5009 24.0013 81.9424 25.4428 83.384C26.8843 84.393 28.47 85.4021 30.0557 86.1228C31.4972 86.6995 32.7946 87.4202 34.3803 87.5644C36.975 88.141 39.7138 88.141 42.4527 87.8527C43.8942 87.7085 45.3358 87.4202 46.6332 87.1319C46.7773 86.9878 46.7773 86.9878 47.0656 86.8436C50.5253 85.8345 53.6966 83.9606 56.4355 81.6541C57.877 80.5009 59.0302 79.3477 59.8952 77.9062C60.4718 76.8971 61.0484 75.7439 61.625 74.7348C61.4808 74.7348 61.0484 74.879 60.9042 75.1673Z" fill="black"/>
</g>
<path fill-rule="evenodd" clip-rule="evenodd" d="M14.7756 7.55994L8.14459 7.84824C7.71213 7.84824 7.42383 8.13655 7.42383 8.569C7.42383 9.00146 7.71213 9.28976 8.14459 9.28976L14.7756 9.00146C15.2081 9.00146 15.4964 8.71315 15.4964 8.2807C15.4964 7.84824 15.0639 7.55994 14.7756 7.55994Z" fill="#1E3A2B"/>
<path fill-rule="evenodd" clip-rule="evenodd" d="M29.1908 7.27161H22.5598C22.1274 7.27161 21.8391 7.55991 21.8391 7.99237C21.8391 8.42482 22.1274 8.71313 22.5598 8.71313H29.1908C29.6233 8.71313 29.9116 8.42482 29.9116 7.99237C29.9116 7.55991 29.6233 7.27161 29.1908 7.27161Z" fill="#1E3A2B"/>
<path fill-rule="evenodd" clip-rule="evenodd" d="M42.8852 6.9834L36.2542 7.2717C35.8218 7.2717 35.5334 7.56 35.5334 7.99246C35.5334 8.42492 35.8218 8.71322 36.2542 8.71322L42.8852 8.42492C43.3177 8.42492 43.606 8.13661 43.606 7.70416C43.606 7.2717 43.1735 6.9834 42.8852 6.9834Z" fill="#1E3A2B"/>
<path d="M143.99 61.9601H135.461V103.97H143.99V61.9601Z" fill="white"/>
<path d="M143.899 61.5063H135.37C135.098 61.5063 134.916 61.6878 134.916 61.96V103.879C134.916 104.151 135.098 104.333 135.37 104.333H143.899C144.171 104.333 144.352 104.151 144.352 103.879V61.96C144.352 61.6878 144.171 61.5063 143.899 61.5063ZM143.445 103.426H135.823V62.4137H143.445V103.426Z" fill="#1E3A2B"/>
<path d="M99.439 86.277H90.9099V103.789H99.439V86.277Z" fill="white"/>
<path d="M99.3482 85.8231H90.8192C90.547 85.8231 90.3655 86.0046 90.3655 86.2768V103.789C90.3655 104.061 90.547 104.242 90.8192 104.242H99.3482C99.6204 104.242 99.8019 104.061 99.8019 103.789V86.2768C99.8019 86.0046 99.6204 85.8231 99.3482 85.8231ZM98.8945 103.335H91.2729V86.7305H98.8945V103.335Z" fill="#1E3A2B"/>
<path d="M114.229 65.4985H105.7V103.97H114.229V65.4985Z" fill="#1E3A2B"/>
<path d="M114.229 65.0448H105.7C105.427 65.0448 105.246 65.2263 105.246 65.4985V103.879C105.246 104.151 105.427 104.333 105.7 104.333H114.229C114.501 104.333 114.682 104.151 114.682 103.879V65.4985C114.682 65.2263 114.501 65.0448 114.229 65.0448ZM113.775 103.425H106.153V65.8614H113.775V103.425Z" fill="#1E3A2B"/>
<path d="M129.109 79.4717H120.58V103.607H129.109V79.4717Z" fill="white"/>
<path d="M129.109 79.0179H120.58C120.308 79.0179 120.126 79.1994 120.126 79.4716V103.607C120.126 103.879 120.308 104.061 120.58 104.061H129.109C129.381 104.061 129.563 103.879 129.563 103.607V79.4716C129.563 79.1994 129.291 79.0179 129.109 79.0179ZM128.656 103.153H121.034V79.9253H128.656V103.153Z" fill="#1E3A2B"/>
<path fill-rule="evenodd" clip-rule="evenodd" d="M123.302 102.246C122.758 101.883 122.213 101.52 121.76 101.157C121.669 101.066 121.578 101.157 121.578 101.157C121.487 101.248 121.578 101.339 121.578 101.339C122.032 101.702 122.576 102.155 123.121 102.518H123.211C123.302 102.518 123.302 102.518 123.302 102.427C123.393 102.427 123.393 102.337 123.302 102.246Z" fill="black"/>
<path fill-rule="evenodd" clip-rule="evenodd" d="M126.115 102.246L121.85 99.0705C121.76 98.9797 121.669 99.0705 121.669 99.0705C121.578 99.1612 121.669 99.252 121.669 99.252L125.933 102.428H126.024C126.024 102.428 126.115 102.428 126.115 102.337C126.206 102.337 126.206 102.246 126.115 102.246Z" fill="black"/>
<path fill-rule="evenodd" clip-rule="evenodd" d="M127.93 100.794L121.85 96.7113C121.76 96.6206 121.669 96.7113 121.669 96.7113V96.8928L127.748 100.976H127.839C127.93 100.976 127.93 100.976 127.93 100.885C128.02 100.976 127.93 100.885 127.93 100.794Z" fill="black"/>
<path fill-rule="evenodd" clip-rule="evenodd" d="M127.93 98.3445C125.843 97.0742 123.756 95.8039 121.76 94.4429C121.669 94.3522 121.578 94.4429 121.578 94.4429C121.487 94.5336 121.578 94.6244 121.578 94.6244C123.574 95.9854 125.661 97.3464 127.748 98.526H127.839C127.93 98.526 127.93 98.526 127.93 98.4352C128.02 98.526 128.02 98.4352 127.93 98.3445Z" fill="black"/>
<path fill-rule="evenodd" clip-rule="evenodd" d="M127.93 95.8038C125.933 94.5336 123.847 93.2633 121.85 91.9023C121.76 91.8115 121.669 91.9023 121.669 91.9023C121.578 91.993 121.669 92.0837 121.669 92.0837C123.665 93.4447 125.661 94.715 127.748 95.9853H127.839C127.93 95.9853 127.93 95.9853 127.93 95.8946C128.02 95.9853 127.93 95.8946 127.93 95.8038Z" fill="black"/>
<path fill-rule="evenodd" clip-rule="evenodd" d="M127.839 93.2634L121.76 89.4525C121.669 89.4525 121.578 89.4525 121.578 89.5432C121.578 89.634 121.578 89.7247 121.669 89.7247L127.748 93.5356H127.839C127.93 93.5356 127.93 93.5356 127.93 93.4448C127.93 93.4448 127.93 93.2634 127.839 93.2634Z" fill="black"/>
<path fill-rule="evenodd" clip-rule="evenodd" d="M127.839 90.9041C125.752 89.7246 123.756 88.3636 121.76 87.0933C121.669 87.0026 121.578 87.0933 121.578 87.0933C121.487 87.184 121.578 87.2748 121.578 87.2748C123.574 88.6358 125.661 89.9061 127.657 91.0856H127.748C127.839 91.0856 127.839 91.0856 127.839 90.9949C128.02 90.9949 127.93 90.9041 127.839 90.9041Z" fill="black"/>
<path fill-rule="evenodd" clip-rule="evenodd" d="M127.657 88.0913L121.85 84.3712C121.76 84.3712 121.669 84.3712 121.669 84.3712C121.669 84.462 121.669 84.5527 121.76 84.5527L127.567 88.2728H127.657C127.748 88.2728 127.748 88.2728 127.748 88.1821C127.748 88.2728 127.748 88.1821 127.657 88.0913Z" fill="black"/>
<path fill-rule="evenodd" clip-rule="evenodd" d="M127.657 85.6415C125.752 84.4619 123.756 83.1917 121.941 81.9214C121.85 81.9214 121.76 81.9214 121.76 81.9214C121.669 82.0121 121.76 82.1029 121.76 82.1029C123.665 83.3731 125.57 84.6434 127.476 85.823H127.567C127.657 85.823 127.657 85.823 127.657 85.7322C127.748 85.7322 127.748 85.6415 127.657 85.6415Z" fill="black"/>
<path fill-rule="evenodd" clip-rule="evenodd" d="M127.93 83.3732L124.028 80.7419C123.937 80.7419 123.846 80.7419 123.846 80.7419C123.756 80.8327 123.846 80.9234 123.846 80.9234L127.748 83.5547H127.839C127.93 83.5547 127.93 83.5547 127.93 83.464V83.3732Z" fill="black"/>
<path fill-rule="evenodd" clip-rule="evenodd" d="M127.93 81.1049L126.932 80.3791C126.841 80.2883 126.75 80.3791 126.75 80.3791C126.659 80.4698 126.75 80.5605 126.75 80.5605L127.748 81.2864H127.839C127.93 81.2864 127.93 81.2864 127.93 81.1957C127.93 81.2864 127.93 81.1957 127.93 81.1049Z" fill="black"/>
<path fill-rule="evenodd" clip-rule="evenodd" d="M150.795 32.2899C150.613 32.1084 150.341 32.1084 150.159 32.2899L125.48 56.6974L109.692 42.7244C109.51 42.5429 109.238 42.5429 109.057 42.7244L88.6416 64.2284C88.4601 64.4099 88.4601 64.6821 88.6416 64.8635C88.7323 64.9543 88.8231 64.9543 88.9138 64.9543C89.0045 64.9543 89.186 64.8635 89.2767 64.7728L109.42 43.6317L125.208 57.6048C125.389 57.7862 125.661 57.7862 125.843 57.6048L150.795 32.925C150.976 32.7436 150.976 32.4714 150.795 32.2899Z" fill="#1E3A2B"/>
<path d="M89.0045 68.9468C90.8586 68.9468 92.3617 67.4437 92.3617 65.5896C92.3617 63.7355 90.8586 62.2324 89.0045 62.2324C87.1504 62.2324 85.6473 63.7355 85.6473 65.5896C85.6473 67.4437 87.1504 68.9468 89.0045 68.9468Z" fill="white"/>
<path d="M89.0046 61.7787C86.9177 61.7787 85.1937 63.5026 85.1937 65.5895C85.1937 67.6764 86.9177 69.4004 89.0046 69.4004C91.0915 69.4004 92.8154 67.6764 92.8154 65.5895C92.7247 63.5026 91.0915 61.7787 89.0046 61.7787ZM89.0046 68.493C87.3714 68.493 86.1011 67.2227 86.1011 65.5895C86.1011 63.9563 87.3714 62.686 89.0046 62.686C90.6378 62.686 91.9081 63.9563 91.9081 65.5895C91.9081 67.2227 90.5471 68.493 89.0046 68.493Z" fill="#1E3A2B"/>
<path d="M109.783 47.4429C111.637 47.4429 113.14 45.9398 113.14 44.0857C113.14 42.2316 111.637 40.7285 109.783 40.7285C107.928 40.7285 106.425 42.2316 106.425 44.0857C106.425 45.9398 107.928 47.4429 109.783 47.4429Z" fill="white"/>
<path d="M109.783 40.2747C107.696 40.2747 105.972 41.9986 105.972 44.0855C105.972 46.1724 107.696 47.8963 109.783 47.8963C111.87 47.8963 113.594 46.1724 113.594 44.0855C113.594 41.9079 111.87 40.2747 109.783 40.2747ZM109.783 46.989C108.149 46.989 106.879 45.7187 106.879 44.0855C106.879 42.4523 108.149 41.182 109.783 41.182C111.416 41.182 112.686 42.4523 112.686 44.0855C112.686 45.628 111.416 46.989 109.783 46.989Z" fill="#1E3A2B"/>
<path d="M124.663 60.1456C126.517 60.1456 128.02 58.6426 128.02 56.7884C128.02 54.9343 126.517 53.4313 124.663 53.4313C122.809 53.4313 121.306 54.9343 121.306 56.7884C121.306 58.6426 122.809 60.1456 124.663 60.1456Z" fill="white"/>
<path d="M124.663 52.9775C122.576 52.9775 120.852 54.7015 120.852 56.7884C120.852 58.8753 122.576 60.5992 124.663 60.5992C126.75 60.5992 128.474 58.8753 128.474 56.7884C128.474 54.7015 126.75 52.9775 124.663 52.9775ZM124.663 59.6919C123.03 59.6919 121.76 58.4216 121.76 56.7884C121.76 55.1552 123.03 53.8849 124.663 53.8849C126.296 53.8849 127.567 55.1552 127.567 56.7884C127.567 58.4216 126.296 59.6919 124.663 59.6919Z" fill="#1E3A2B"/>
<path d="M150.432 36.464C152.286 36.464 153.789 34.9609 153.789 33.1068C153.789 31.2527 152.286 29.7496 150.432 29.7496C148.578 29.7496 147.075 31.2527 147.075 33.1068C147.075 34.9609 148.578 36.464 150.432 36.464Z" fill="white"/>
<path d="M150.432 29.2958C148.345 29.2958 146.621 31.0197 146.621 33.1066C146.621 35.1935 148.345 36.9175 150.432 36.9175C152.519 36.9175 154.242 35.1935 154.242 33.1066C154.242 31.0197 152.519 29.2958 150.432 29.2958ZM150.432 36.0101C148.798 36.0101 147.528 34.7398 147.528 33.1066C147.528 31.4734 148.798 30.2031 150.432 30.2031C152.065 30.2031 153.335 31.4734 153.335 33.1066C153.335 34.6491 152.065 36.0101 150.432 36.0101Z" fill="#1E3A2B"/>
<path fill-rule="evenodd" clip-rule="evenodd" d="M57.7055 108.358C55.5321 107.737 52.9706 108.979 52.1944 111.152C52.272 107.116 48.8568 103.312 45.0534 103.312C41.1724 103.312 37.7571 107.426 38.5333 111.385C37.9123 109.522 35.739 108.591 33.8761 108.901C32.0132 109.212 30.4608 110.609 29.4517 112.239C28.5979 113.636 27.9769 115.266 28.2098 116.896C28.4427 118.526 29.4517 120.699 31.7803 120.699C38.5333 120.622 45.2862 120.544 52.0392 120.389C54.2125 120.389 56.4635 120.311 58.3264 119.225C60.2669 118.138 61.6641 115.887 61.5865 113.558C61.4312 111.23 59.8012 108.979 57.7055 108.358Z" fill="white"/>
<path d="M57.7831 107.97C55.8426 107.426 53.6692 108.202 52.4273 109.833C52.1945 108.125 51.3406 106.495 50.0987 105.175C48.6239 103.701 46.8387 102.924 44.9758 102.924C43.0353 102.924 41.0948 103.933 39.6976 105.641C38.6109 106.961 38.0676 108.435 37.9124 109.988C36.9033 108.901 35.2733 108.358 33.7209 108.591C31.9356 108.901 30.228 110.143 28.986 112.083C28.2875 113.248 27.4336 115.033 27.6665 116.974C27.8994 119.069 29.2189 121.087 31.5475 121.087C31.5475 121.087 31.5475 121.087 31.6251 121.087L51.884 120.777C53.9797 120.777 56.3083 120.699 58.3265 119.613C60.4222 118.371 61.8194 115.964 61.8194 113.558C61.7417 110.997 60.0341 108.668 57.7831 107.97ZM58.016 118.914C56.1531 119.923 53.9021 120.001 51.9616 120.001L31.7027 120.311C31.7027 120.311 31.7027 120.311 31.6251 120.311C29.5294 120.311 28.6756 118.138 28.5203 116.818C28.2875 115.111 29.0637 113.481 29.6846 112.472C30.7713 110.764 32.3237 109.6 33.8761 109.289C34.109 109.289 34.2642 109.212 34.4971 109.212C35.8942 109.212 37.5243 109.988 38.0676 111.463C38.1452 111.618 38.3005 111.773 38.5333 111.695C38.6886 111.618 38.8438 111.463 38.8438 111.23C38.5333 109.444 39.0767 107.504 40.3186 105.952C41.5605 104.399 43.2681 103.545 44.9758 103.545C46.6058 103.545 48.2358 104.244 49.5554 105.563C51.0302 107.038 51.8064 108.979 51.7287 110.919C51.7287 111.074 51.884 111.23 52.0392 111.307C52.1945 111.307 52.4273 111.23 52.5049 111.074C53.2035 109.134 55.5321 107.97 57.5503 108.513C59.4908 109.056 61.0432 111.152 61.0432 113.325C61.1208 115.732 59.8789 117.827 58.016 118.914Z" fill="black"/>
<g opacity="0.1294">
<path fill-rule="evenodd" clip-rule="evenodd" d="M59.8012 116.042C59.646 116.12 59.4907 116.197 59.3355 116.353C59.1803 116.508 59.025 116.586 58.7922 116.663C58.4041 116.896 58.016 117.206 57.5502 117.439C57.4726 117.439 57.4726 117.439 57.4726 117.517C56.6188 117.75 55.765 118.138 54.8335 118.293C54.2126 118.371 52.0392 118.293 50.7973 118.371C48.0806 118.448 45.4415 118.448 42.7248 118.526C40.629 118.448 38.4557 118.681 36.3599 118.914C33.6432 119.147 32.7894 119.225 30.7713 118.371C30.3056 118.216 29.9951 117.905 29.5294 117.75C28.6755 117.595 28.2098 118.914 28.986 119.38C30.0727 119.923 31.1594 120.467 32.4013 120.699C35.118 121.165 37.8347 120.311 40.629 120.389C41.5605 120.389 42.5695 120.467 43.501 120.389C44.8205 120.311 46.0624 120.234 47.382 120.234C49.3225 120.156 51.3406 120.078 52.7378 119.846C52.7378 120.311 53.1259 120.699 53.5916 120.622C55.144 120.467 56.6964 119.923 58.016 119.147C58.3264 118.992 58.6369 118.759 58.9474 118.604C59.1026 118.448 59.3355 118.448 59.4907 118.216C59.646 118.06 59.646 117.905 59.646 117.75C59.8788 117.595 60.0341 117.439 60.2669 117.284C60.4998 117.129 60.655 116.896 60.655 116.586C60.7327 116.353 60.2669 115.965 59.8012 116.042Z" fill="black"/>
</g>
</svg>
