<svg width="179" height="135" viewBox="0 0 179 135" fill="none" xmlns="http://www.w3.org/2000/svg">
<path d="M163.58 133.694C163.58 95.2945 163.982 61.7203 163.58 25.7335C109.7 25.7335 55.6198 27.3419 1.33813 26.7387C0.734996 63.5297 1.33813 98.1091 1.33813 133.895C55.6198 133.895 109.7 133.694 163.58 133.694Z" fill="white"/>
<path d="M1.33828 134.9C0.735155 134.9 0.333069 134.498 0.333069 133.895C0.333069 122.033 0.333118 109.971 0.132074 98.3101C-0.0689688 75.1901 -0.0690179 51.266 0.333069 26.7387C0.333069 26.1356 0.735155 25.7335 1.33828 25.7335C32.701 26.1356 64.4659 25.7335 95.2255 25.3314C117.742 25.1304 140.862 24.7283 163.58 24.7283C164.183 24.7283 164.585 25.1304 164.585 25.7335C164.786 49.4566 164.787 72.1745 164.787 95.8976C164.787 108.161 164.585 120.626 164.585 133.694C164.585 134.297 164.183 134.699 163.58 134.699C136.64 134.699 109.098 134.699 82.5598 134.699C56.0221 134.9 28.4791 134.9 1.33828 134.9ZM2.3435 27.7439C1.94141 51.8691 2.14251 75.3912 2.14251 98.3101C2.14251 109.569 2.3435 121.229 2.3435 132.89C29.0823 132.89 56.4242 132.89 82.5598 132.89C108.695 132.89 135.836 132.89 162.374 132.89C162.374 120.224 162.374 107.96 162.575 96.0986C162.575 72.5766 162.776 50.4618 162.575 26.9397C140.259 26.9397 117.34 27.1408 95.2255 27.5429C64.868 27.7439 33.3042 28.146 2.3435 27.7439Z" fill="#1E3A2B"/>
<path d="M1.74037 15.4803C1.53932 19.9033 1.5393 24.1252 1.33826 29.3523C55.6199 29.5534 109.5 29.3523 163.58 29.1513C163.58 24.5273 163.379 18.496 163.379 14.6761L1.74037 15.4803Z" fill="#1E3A2B"/>
<path d="M56.2233 30.5585C37.3252 30.5585 19.0302 30.5585 1.33835 30.5585C1.1373 30.5585 0.73529 30.3575 0.534247 30.1564C0.333204 29.9554 0.33313 29.7544 0.33313 29.3523C0.534173 26.7387 0.534247 24.3262 0.534247 21.9137C0.534247 19.7022 0.534198 17.6918 0.735241 15.4803C0.735241 14.8771 1.13733 14.4751 1.74046 14.4751L163.58 13.6709C163.781 13.6709 164.183 13.8719 164.385 14.073C164.586 14.274 164.787 14.4751 164.787 14.8771C164.787 16.6865 164.787 18.898 164.787 21.3105C164.787 24.1252 164.787 26.7387 164.787 29.3523C164.787 29.9554 164.385 30.3575 163.781 30.3575C125.382 30.3575 89.7975 30.5585 56.2233 30.5585ZM2.34356 28.3471C51.1971 28.5481 103.669 28.3471 162.575 28.146C162.575 25.9345 162.575 23.522 162.575 21.3105C162.575 19.3001 162.575 17.4907 162.575 15.8824L2.74567 16.6865C2.74567 18.4959 2.74572 20.3053 2.54468 22.1147C2.54468 24.1251 2.54461 26.1356 2.34356 28.3471Z" fill="#1E3A2B"/>
<path d="M115.129 23.321C114.526 23.321 114.124 22.919 114.124 22.3158C114.124 21.7127 114.526 21.3106 115.129 21.3106L122.567 21.1096C123.171 21.1096 123.573 21.5116 123.573 22.1148C123.573 22.7179 123.171 23.12 122.567 23.12L115.129 23.321Z" fill="black"/>
<path d="M131.614 23.522C131.011 23.522 130.609 23.1199 130.609 22.5168C130.609 21.9137 131.011 21.5116 131.614 21.5116L139.053 21.3105C139.656 21.3105 140.058 21.7126 140.058 22.3158C140.058 22.9189 139.656 23.321 139.053 23.321L131.614 23.522Z" fill="black"/>
<path d="M147.698 23.321C147.095 23.321 146.693 22.919 146.693 22.3158C146.693 21.7127 147.095 21.3106 147.698 21.3106L155.136 21.1096C155.74 21.1096 156.142 21.5116 156.142 22.1148C156.142 22.7179 155.74 23.12 155.136 23.12L147.698 23.321Z" fill="white"/>
<path d="M21.0406 53.8796C20.4375 53.8796 20.0354 53.4775 20.0354 52.8744C20.0354 52.2713 20.4375 51.8692 21.0406 51.8692L39.1345 51.2661C39.7376 51.2661 40.1397 51.6681 40.1397 52.2713C40.1397 52.8744 39.7376 53.2765 39.1345 53.2765L21.0406 53.8796Z" fill="#1E3A2B"/>
<path d="M22.0459 74.9891C21.4427 74.9891 21.0406 74.587 21.0406 73.9839C21.0406 73.3808 21.4427 72.9787 22.0459 72.9787L46.3721 72.3755C46.9752 72.3755 47.3773 72.7776 47.3773 73.3808C47.3773 73.9839 46.9752 74.386 46.3721 74.386L22.0459 74.9891Z" fill="#1E3A2B"/>
<path d="M21.6436 96.0987C21.0405 96.0987 20.6384 95.6966 20.6384 95.0935C20.6384 94.4903 21.0405 94.0882 21.6436 94.0882L70.8993 93.4851C71.5024 93.4851 71.9045 93.8872 71.9045 94.4903C71.9045 95.0935 71.5024 95.4955 70.8993 95.4955L21.6436 96.0987Z" fill="#1E3A2B"/>
<path d="M22.0459 114.997C21.4427 114.997 21.0406 114.595 21.0406 113.992C21.0406 113.388 21.4427 112.986 22.0459 112.986L108.293 112.383C108.896 112.383 109.299 112.785 109.299 113.388C109.299 113.992 108.896 114.394 108.293 114.394L22.0459 114.997Z" fill="#1E3A2B"/>
<path d="M130.81 80.6185C138.048 87.856 145.486 95.0936 152.724 102.13C156.544 105.95 160.364 109.77 164.585 112.986C166.797 114.796 169.41 116.404 172.225 116.404C175.04 116.404 177.854 113.992 177.854 110.976C177.854 108.563 176.246 106.553 174.638 104.945C162.977 92.681 150.915 81.0205 138.249 70.1642C136.037 73.5819 133.625 76.9997 130.81 80.6185Z" fill="white"/>
<path d="M172.225 117.61C169.209 117.61 166.395 115.801 163.982 113.991C159.76 110.574 155.74 106.754 151.92 102.934L130.006 81.4225C129.604 81.0204 129.604 80.4173 129.805 80.0152C132.62 76.3964 134.831 72.9786 137.043 69.7619C137.244 69.5609 137.445 69.3599 137.847 69.3599C138.048 69.3599 138.45 69.3599 138.651 69.5609C151.317 80.4173 163.58 92.2788 175.241 104.542C177.05 106.352 178.86 108.563 178.86 111.378C178.86 112.986 178.256 114.595 177.05 115.801C175.844 116.806 174.035 117.61 172.225 117.61ZM132.218 80.4172L153.528 101.326C157.348 104.945 161.168 108.965 165.39 112.182C167.601 113.79 169.813 115.399 172.225 115.399C173.431 115.399 174.638 114.796 175.643 113.991C176.447 113.187 176.849 112.182 176.849 110.976C176.849 108.965 175.442 107.156 173.834 105.548C162.575 93.6861 150.512 82.2266 138.45 71.5714C136.64 74.587 134.63 77.4016 132.218 80.4172Z" fill="#1E3A2B"/>
<path d="M102.463 1.00519C77.3326 1.00519 56.8262 21.5116 56.8262 46.642C56.8262 71.7724 77.3326 92.2788 102.463 92.2788C127.593 92.2788 148.1 71.7724 148.1 46.642C147.899 21.5116 127.593 1.00519 102.463 1.00519ZM102.463 81.2214C83.3639 81.2214 67.8836 65.7411 67.8836 46.642C67.8836 27.5429 83.3639 12.0626 102.463 12.0626C121.562 12.0626 137.042 27.5429 137.042 46.642C137.042 65.7411 121.562 81.2214 102.463 81.2214ZM102.463 81.2214C83.3639 81.2214 67.8836 65.7411 67.8836 46.642C67.8836 27.5429 83.3639 12.0626 102.463 12.0626C121.562 12.0626 137.042 27.5429 137.042 46.642C137.042 65.7411 121.562 81.2214 102.463 81.2214Z" fill="white"/>
<path d="M102.463 93.2841C76.7295 93.2841 55.8209 72.3756 55.8209 46.642C55.8209 20.9085 76.7295 0 102.463 0C128.197 0 149.105 20.9085 149.105 46.642C149.105 72.3756 127.995 93.2841 102.463 93.2841ZM102.463 2.01043C77.9357 2.01043 57.8314 21.9137 57.8314 46.642C57.8314 71.1693 77.7347 91.2736 102.463 91.2736C126.99 91.2736 147.095 71.3704 147.095 46.642C146.893 22.1148 126.99 2.01043 102.463 2.01043ZM102.463 82.2267C82.7607 82.2267 66.8783 66.1432 66.8783 46.642C66.8783 26.9398 82.9618 11.0574 102.463 11.0574C122.165 11.0574 138.048 27.1408 138.048 46.642C138.048 66.3443 121.964 82.2267 102.463 82.2267ZM68.8887 46.642C68.8887 65.138 83.967 80.2163 102.463 80.2163C120.959 80.2163 136.037 65.138 136.037 46.642C136.037 28.1461 120.959 13.0678 102.463 13.0678C83.967 13.0678 68.8887 28.1461 68.8887 46.642Z" fill="#1E3A2B"/>
<path d="M84.5702 49.8588C86.5688 49.8588 88.1889 48.2386 88.1889 46.24C88.1889 44.2414 86.5688 42.6212 84.5702 42.6212C82.5716 42.6212 80.9514 44.2414 80.9514 46.24C80.9514 48.2386 82.5716 49.8588 84.5702 49.8588Z" fill="white"/>
<path d="M84.5701 50.864C81.9566 50.864 79.9462 48.8536 79.9462 46.24C79.9462 43.6265 81.9566 41.616 84.5701 41.616C87.1837 41.616 89.1941 43.6265 89.1941 46.24C89.1941 48.6525 87.1837 50.864 84.5701 50.864ZM84.5701 43.6265C83.1628 43.6265 81.9566 44.8327 81.9566 46.24C81.9566 47.6473 83.1628 48.8536 84.5701 48.8536C85.9774 48.8536 87.1837 47.6473 87.1837 46.24C87.1837 44.8327 85.9774 43.6265 84.5701 43.6265Z" fill="#1E3A2B"/>
<path d="M101.86 49.8588C103.858 49.8588 105.479 48.2386 105.479 46.24C105.479 44.2414 103.858 42.6212 101.86 42.6212C99.8611 42.6212 98.241 44.2414 98.241 46.24C98.241 48.2386 99.8611 49.8588 101.86 49.8588Z" fill="white"/>
<path d="M101.86 50.864C99.2462 50.864 97.2358 48.8536 97.2358 46.24C97.2358 43.6265 99.2462 41.616 101.86 41.616C104.473 41.616 106.484 43.6265 106.484 46.24C106.484 48.6525 104.473 50.864 101.86 50.864ZM101.86 43.6265C100.453 43.6265 99.2463 44.8327 99.2463 46.24C99.2463 47.6473 100.453 48.8536 101.86 48.8536C103.267 48.8536 104.473 47.6473 104.473 46.24C104.473 44.8327 103.267 43.6265 101.86 43.6265Z" fill="#1E3A2B"/>
<path d="M119.15 49.8588C121.148 49.8588 122.768 48.2386 122.768 46.24C122.768 44.2414 121.148 42.6212 119.15 42.6212C117.151 42.6212 115.531 44.2414 115.531 46.24C115.531 48.2386 117.151 49.8588 119.15 49.8588Z" fill="white"/>
<path d="M119.149 50.864C116.536 50.864 114.526 48.8536 114.526 46.24C114.526 43.6265 116.536 41.616 119.149 41.616C121.763 41.616 123.773 43.6265 123.773 46.24C123.773 48.6525 121.763 50.864 119.149 50.864ZM119.149 43.6265C117.742 43.6265 116.536 44.8327 116.536 46.24C116.536 47.6473 117.742 48.8536 119.149 48.8536C120.557 48.8536 121.763 47.6473 121.763 46.24C121.763 44.8327 120.557 43.6265 119.149 43.6265Z" fill="#1E3A2B"/>
<path d="M136.841 81.8246C136.64 81.8246 136.439 81.6236 136.439 81.4225L137.244 78.6079C137.244 78.4069 137.445 78.4069 137.646 78.4069C137.847 78.4069 137.847 78.6079 137.847 78.8089L137.042 81.6236C137.042 81.8246 136.841 81.8246 136.841 81.8246Z" fill="#1E3A2B"/>
<path d="M140.661 86.8507C140.46 86.8507 140.259 86.6497 140.259 86.4486C140.661 83.2319 141.264 79.8142 141.868 76.5975C141.868 76.3965 142.069 76.1954 142.27 76.3964C142.471 76.3964 142.672 76.5975 142.471 76.7985C141.868 80.0152 141.466 83.433 140.862 86.6497C140.862 86.6497 140.862 86.8507 140.661 86.8507Z" fill="#1E3A2B"/>
<path d="M145.687 91.4747C145.486 91.4747 145.285 91.2737 145.285 91.0727C145.285 89.4643 145.486 86.6497 145.687 84.2372C145.888 82.8299 145.888 81.4226 145.888 80.6184C145.888 80.4174 146.089 80.2163 146.29 80.2163C146.492 80.2163 146.693 80.4174 146.693 80.6184C146.693 81.4226 146.491 82.6288 146.491 84.2372C146.29 86.6497 146.089 89.4643 146.089 91.0727C145.888 91.4748 145.888 91.4747 145.687 91.4747Z" fill="#1E3A2B"/>
<path d="M150.713 96.2998C150.512 96.2998 150.311 96.0987 150.311 95.8977L150.11 84.2372C150.11 84.0361 150.311 83.8351 150.512 83.8351C150.713 83.8351 150.914 84.0361 150.914 84.2372L151.115 95.8977C151.115 96.0987 150.915 96.2998 150.713 96.2998Z" fill="#1E3A2B"/>
<path d="M155.538 101.326C155.337 101.326 155.136 101.125 155.136 100.924L154.734 88.6602C154.734 88.4591 154.935 88.2581 155.136 88.2581C155.337 88.2581 155.538 88.4591 155.538 88.6602L155.94 100.924C155.94 101.125 155.739 101.326 155.538 101.326Z" fill="#1E3A2B"/>
<path d="M160.565 105.749C160.363 105.749 160.162 105.548 160.162 105.347L159.559 93.8872C159.559 93.6861 159.76 93.4851 159.961 93.4851C160.162 93.4851 160.364 93.6861 160.364 93.8872L160.967 105.347C160.766 105.548 160.766 105.749 160.565 105.749Z" fill="#1E3A2B"/>
<path d="M165.389 109.77C165.188 109.77 164.987 109.569 164.987 109.368L164.183 98.3102C164.183 98.1092 164.384 97.9081 164.585 97.9081C164.786 97.9081 164.987 98.1092 164.987 98.3102L165.792 109.368C165.792 109.569 165.59 109.77 165.389 109.77Z" fill="#1E3A2B"/>
<path d="M170.014 113.388C169.813 113.388 169.612 113.187 169.612 112.986L168.606 103.336C168.606 103.135 168.807 102.934 169.008 102.934C169.209 102.934 169.411 103.135 169.411 103.336L170.416 112.986C170.416 113.187 170.215 113.388 170.014 113.388Z" fill="#1E3A2B"/>
<path d="M174.436 112.785C174.235 112.785 174.034 112.584 174.034 112.584L173.431 108.161C173.431 107.96 173.431 107.759 173.632 107.759C173.833 107.759 174.034 107.759 174.034 107.96L174.637 112.383C174.839 112.584 174.839 112.785 174.436 112.785C174.638 112.785 174.638 112.785 174.436 112.785Z" fill="#1E3A2B"/>
<g opacity="0.1294">
<path d="M58.4348 29.3524C57.2286 28.7492 55.8212 29.1513 54.6149 29.1513C49.1868 29.1513 43.9597 28.5482 38.5315 28.7492C32.5002 28.7492 26.4689 29.3523 20.2366 29.1513C16.8189 28.9503 13.2001 29.1513 9.78233 28.9502C8.37503 28.9502 7.16877 28.9502 5.76146 28.9502C4.95729 28.9502 3.9521 28.7492 3.14793 29.1513C0.33332 30.1565 1.33854 34.3784 4.15314 34.3784C12.999 34.3784 21.8449 35.1826 30.4898 34.9815C39.3357 34.5795 47.9806 34.9816 56.8265 34.3784C57.2286 34.3784 57.6307 34.3784 57.8317 34.1774C58.2338 33.9763 58.4348 33.9763 58.6358 33.5742C60.2442 32.368 59.8421 30.1565 58.4348 29.3524Z" fill="black"/>
</g>
<g opacity="0.1294">
<path d="M162.977 28.7491C162.374 28.347 161.57 28.347 160.766 28.5481C160.163 28.5481 159.559 28.7491 159.157 28.7491C159.157 28.7491 159.157 28.7491 158.956 28.7491C155.539 28.7491 152.121 28.347 148.502 28.5481C147.296 28.5481 146.089 28.347 145.084 29.3523C143.476 30.9606 144.682 33.9762 146.894 33.9762C149.909 33.7752 152.925 33.7752 155.74 33.7752C158.152 33.5742 157.75 33.5742 159.358 33.3731C159.962 33.3731 160.364 33.3731 160.967 33.3731C161.57 33.3731 162.374 33.1721 162.776 32.77C164.586 31.7648 164.384 29.5533 162.977 28.7491Z" fill="black"/>
</g>
<g opacity="0.1294">
<path d="M112.917 79.0099C114.124 78.6078 115.129 78.2057 116.335 77.8037C118.748 76.3964 121.16 74.9891 123.573 73.3807C125.784 71.9734 127.594 69.963 129.403 68.1536C130.207 67.3494 130.81 66.5452 131.413 65.7411C130.81 65.54 130.006 65.54 129.403 65.9421C126.387 68.1536 123.171 70.164 119.753 71.7724C117.541 72.9786 114.526 73.7828 110.505 74.3859C104.273 75.3912 92.8131 73.1797 86.1786 69.5609C84.1682 68.5557 82.3588 67.3494 80.5495 66.1431C79.5442 65.339 78.539 64.5348 77.5338 63.5296C77.1317 63.1275 75.9255 61.9213 75.5234 61.5192C72.1056 56.2921 70.4973 51.668 69.2911 48.6524C68.889 47.4461 68.4868 46.0388 68.0848 44.8326C67.8837 44.2294 67.8837 43.4253 67.4816 42.8221C67.2806 45.8378 67.4816 48.8534 68.0848 51.668C68.6879 54.6837 69.492 57.6993 70.6983 60.715C71.1004 61.3181 71.3014 61.7202 71.7035 62.3233C74.116 66.3442 76.7296 69.963 80.1473 73.1797C82.3588 74.587 84.9725 75.7932 87.385 76.7984C92.4111 78.8089 97.6382 80.0151 103.066 80.4172C105.077 80.6183 107.087 80.6183 108.897 80.4172C110.505 79.8141 111.711 79.412 112.917 79.0099Z" fill="black"/>
</g>
<g opacity="0.1294">
<path d="M164.787 112.182C164.585 111.78 164.183 111.378 163.781 111.177C163.58 110.976 162.977 110.373 162.776 110.172C159.358 106.553 155.337 103.537 151.518 100.321C148.904 97.908 146.492 94.8924 143.677 92.4799C140.661 90.0674 138.45 86.8507 135.434 84.4381C135.635 84.4381 135.836 84.2371 136.037 84.2371C137.847 83.0308 139.455 81.6235 140.862 80.0152C141.465 79.4121 141.868 78.8089 142.471 78.2058C143.275 77.6027 143.677 76.7985 143.878 75.9943C144.28 74.587 143.074 73.1797 141.667 72.7776C140.058 72.3755 138.45 73.3808 137.847 74.9891C136.439 76.5975 135.032 78.0047 133.424 79.211C133.424 79.211 133.223 79.4121 133.022 79.4121C132.418 79.8141 131.815 80.4173 131.614 81.2214C131.614 81.4225 131.413 81.8246 131.413 82.0256C131.212 82.0256 131.212 82.0256 131.011 82.0256C129.202 82.0256 127.996 84.4381 129.403 85.8454C132.418 88.258 135.233 91.0726 137.847 94.0882C140.862 97.1039 143.677 100.321 146.693 103.537C149.105 105.95 151.719 107.96 154.332 110.172C156.142 111.78 157.951 113.388 159.76 115.198C159.961 115.6 160.162 115.801 160.565 116.002C163.178 117.007 166.194 114.394 164.787 112.182Z" fill="black"/>
</g>
</svg>
